<?xml version="1.0" standalone="no"?>
<!DOCTYPE svg PUBLIC "-//W3C//DTD SVG 20010904//EN"
 "http://www.w3.org/TR/2001/REC-SVG-20010904/DTD/svg10.dtd">
<svg version="1.0" xmlns="http://www.w3.org/2000/svg"
 width="900.000000pt" height="720.000000pt" viewBox="0 0 900.000000 720.000000"
 preserveAspectRatio="xMidYMid meet">

<g transform="translate(0.000000,720.000000) scale(0.100000,-0.100000)"
fill="#000000" stroke="none">
<path d="M3542 6759 c-58 -43 -143 -167 -208 -306 -149 -315 -221 -464 -377
-773 -159 -316 -258 -508 -367 -715 -112 -211 -134 -251 -150 -275 -33 -50
-139 -246 -156 -290 -18 -48 -66 -106 -95 -115 -12 -4 -28 -38 -48 -98 -17
-51 -42 -108 -54 -127 -29 -44 -67 -133 -67 -158 0 -26 -41 -62 -72 -62 -14 0
-41 -6 -59 -14 -19 -8 -54 -17 -79 -19 -25 -3 -59 -10 -76 -15 -20 -6 -37 -6
-48 0 -10 5 -20 7 -23 4 -4 -3 0 -7 8 -7 8 -1 1 -5 -16 -8 -16 -4 -38 -3 -49
2 -12 6 -16 6 -12 -1 4 -6 -1 -10 -11 -10 -10 1 -36 -4 -58 -10 -52 -14 -162
-26 -252 -26 -40 -1 -73 -4 -73 -7 0 -4 -20 -9 -45 -11 -25 -2 -45 0 -45 4 0
5 -8 8 -17 8 -15 0 -16 -2 -3 -10 11 -7 1 -10 -35 -10 -27 0 -72 -2 -100 -5
-27 -2 -71 -5 -97 -6 -27 -1 -48 -5 -48 -9 0 -4 -12 -6 -27 -4 -16 1 -43 0
-61 -4 -31 -7 -32 -7 -11 -20 15 -10 19 -10 14 -1 -6 8 -4 10 5 4 13 -8 29
-10 184 -19 55 -3 92 -10 97 -18 9 -14 2 -28 -14 -28 -8 0 -8 3 2 9 16 11 6
16 -38 20 -20 2 -31 -1 -27 -7 3 -6 15 -8 26 -5 11 3 20 0 20 -6 0 -6 -7 -8
-17 -4 -10 4 -14 2 -9 -5 3 -6 1 -14 -5 -18 -7 -4 -9 -3 -6 3 4 6 -5 21 -20
34 -22 20 -25 21 -19 5 6 -17 5 -17 -10 -5 -10 8 -18 14 -18 13 -14 -11 -54
-28 -64 -25 -8 1 -19 -3 -27 -9 -9 -8 -15 -8 -20 0 -3 5 -11 10 -17 10 -6 0
-5 -7 3 -17 11 -15 10 -15 -8 1 -20 16 -25 17 -40 5 -9 -8 -14 -9 -10 -2 4 6
4 13 0 16 -5 2 -2 2 5 0 7 -1 10 2 7 7 -9 14 -50 5 -51 -11 -1 -8 -2 -19 -3
-25 0 -7 -10 -14 -20 -17 -16 -4 -18 0 -15 19 2 13 0 24 -6 24 -5 0 -10 5 -10
11 0 5 4 8 9 4 6 -3 8 4 6 15 -3 16 2 20 23 21 15 1 30 1 35 0 4 0 7 3 7 8 0
13 -108 7 -123 -8 -9 -10 -8 -11 6 -6 9 4 24 5 32 1 13 -4 13 -9 4 -25 -12
-19 -25 -21 -45 -9 -6 4 -11 1 -11 -7 0 -7 8 -12 18 -10 17 3 21 -17 5 -32 -4
-4 -6 -1 -4 7 3 16 -19 20 -44 8 -13 -6 -16 -4 -13 12 3 17 1 19 -16 10 -10
-6 -19 -7 -19 -3 0 4 -8 -1 -16 -12 -11 -14 -15 -15 -14 -5 4 29 0 39 -15 34
-8 -4 -15 -10 -15 -16 0 -5 4 -7 8 -4 5 3 9 -1 9 -9 0 -11 -4 -12 -14 -4 -10
9 -13 8 -13 -2 0 -11 -2 -11 -10 1 -5 8 -10 20 -10 25 0 6 5 3 10 -5 5 -8 10
-10 10 -4 0 6 -3 13 -6 17 -9 9 -35 -4 -28 -14 3 -5 -6 -5 -19 0 -14 6 -28 7
-32 3 -3 -3 -3 1 1 11 3 9 10 15 14 12 5 -3 11 -1 14 4 8 12 -135 5 -201 -10
-30 -7 -62 -22 -75 -36 -21 -22 -21 -27 -9 -71 55 -210 413 -557 911 -883 98
-65 151 -98 315 -196 11 -7 27 -15 35 -20 8 -4 35 -19 60 -33 113 -66 392
-210 407 -210 5 0 33 23 63 51 30 28 132 112 225 187 94 75 197 159 230 187
33 28 86 70 118 94 33 24 68 58 79 77 11 19 23 34 26 34 4 0 21 23 37 51 l30
50 550 -6 c303 -4 555 -8 562 -10 7 -2 160 3 340 11 180 8 596 19 923 24 474
7 638 13 805 29 300 30 266 37 293 -66 61 -232 248 -578 436 -808 105 -128
346 -500 376 -581 6 -16 22 -51 35 -79 51 -109 94 -202 109 -239 13 -32 20
-37 38 -33 13 3 50 12 83 21 33 8 80 15 104 16 24 0 87 11 140 25 53 13 168
38 256 55 143 27 203 42 395 96 198 56 442 160 580 249 95 61 234 201 283 285
62 108 82 186 82 325 -1 138 -12 186 -62 268 -151 249 -527 473 -1143 681
-155 52 -306 95 -410 118 -47 10 -85 42 -73 61 12 19 14 188 2 205 -9 14 -10
13 -6 -6 3 -12 1 -20 -4 -17 -4 3 -8 21 -7 39 1 33 -23 82 -35 70 -3 -3 -3 2
-1 13 5 18 -11 305 -20 353 -2 14 -7 70 -11 125 -11 181 -75 771 -105 965 -30
194 -89 494 -109 555 -5 17 -19 64 -31 105 -26 87 -71 187 -111 247 -16 23
-29 44 -29 48 0 15 -84 124 -92 119 -5 -3 -7 -1 -6 5 4 16 -74 120 -89 121
-16 0 -17 -12 -2 -27 8 -8 8 -13 0 -18 -6 -3 -11 -3 -10 2 4 15 -13 43 -22 37
-5 -3 -9 0 -9 6 0 7 7 10 15 6 9 -3 15 0 15 9 0 8 -8 15 -17 15 -9 0 -13 3
-10 7 4 3 2 12 -4 20 -14 16 -43 18 -33 1 12 -19 -19 4 -39 29 -10 13 -23 21
-28 18 -5 -4 -18 -8 -30 -10 -18 -4 -20 -1 -14 25 4 19 3 30 -4 30 -6 0 -7 -7
-4 -17 4 -11 3 -14 -6 -9 -6 4 -18 2 -26 -4 -8 -7 -15 -9 -15 -4 0 5 -4 3 -9
-5 -7 -11 -12 -9 -22 10 -11 22 -11 23 4 11 15 -12 16 -10 12 19 -3 28 -25 67
-25 45 0 -5 -6 -3 -14 3 -11 9 -18 6 -35 -17 -11 -16 -17 -33 -13 -37 4 -4 -3
-3 -15 4 -16 8 -22 8 -25 -1 -3 -7 -7 -6 -11 5 -3 9 -3 16 1 16 22 -4 32 2 26
14 -5 8 -2 7 9 -2 15 -12 17 -11 14 8 -2 12 -9 27 -17 34 -10 10 -12 9 -7 -6
4 -10 3 -16 -2 -12 -6 3 -14 -1 -18 -10 -7 -12 -11 -11 -21 6 -8 12 -9 18 -3
14 6 -3 11 -1 11 5 0 6 4 9 9 5 6 -3 8 4 6 15 -5 28 -15 41 -25 35 -4 -3 -13
2 -20 10 -15 18 -33 20 -27 3 2 -7 9 -12 15 -11 5 1 12 -3 15 -10 3 -7 -3 -13
-14 -13 -11 0 -20 10 -24 25 -5 18 -9 21 -14 12 -5 -7 -11 -12 -15 -12 -20 3
-26 0 -21 -9 3 -5 1 -10 -5 -10 -6 0 -8 -5 -4 -12 4 -6 3 -8 -4 -5 -9 6 -9 27
-2 47 1 3 2 8 1 12 0 4 8 5 19 3 12 -2 24 4 30 15 7 12 17 17 28 14 14 -5 15
-4 2 5 -12 8 -19 6 -32 -10 -15 -17 -18 -18 -18 -5 0 9 -5 16 -11 16 -5 0 -7
-5 -3 -12 5 -7 3 -8 -5 -4 -7 5 -10 14 -7 21 3 8 -3 19 -12 26 -14 11 -15 11
-5 0 13 -16 6 -44 -10 -34 -6 4 -7 1 -3 -6 5 -8 0 -14 -13 -18 -12 -3 -18 -10
-14 -17 3 -6 -3 -2 -15 8 -12 11 -22 24 -22 29 0 6 6 3 13 -6 8 -12 16 -14 27
-7 12 8 12 10 -5 10 -17 0 -17 2 -5 10 12 8 11 10 -7 11 -13 1 -29 2 -35 3 -7
1 -17 -3 -21 -9 -5 -6 -7 -4 -4 5 2 8 13 15 23 14 14 -1 20 5 20 21 0 15 -5
21 -13 18 -7 -3 -13 0 -13 6 0 6 -12 11 -27 11 -21 0 -24 -3 -13 -9 8 -6 17
-8 21 -5 16 10 18 -15 3 -31 -9 -9 -14 -24 -11 -35 8 -30 -1 -24 -18 13 -8 17
-13 25 -11 16 2 -9 -2 -16 -9 -16 -7 0 -11 6 -9 12 3 7 -3 18 -12 26 -12 9
-15 10 -10 2 4 -8 2 -13 -6 -13 -9 0 -9 -3 2 -10 8 -5 13 -10 10 -11 -3 0 -13
-2 -22 -4 -22 -4 -32 23 -16 44 12 14 11 14 -4 2 -11 -8 -18 -9 -18 -3 0 16
22 27 45 23 11 -2 16 1 12 5 -9 10 -56 14 -55 5 3 -14 -15 -40 -23 -35 -5 3
-6 11 -3 17 4 7 3 8 -1 4 -12 -10 -15 -38 -4 -31 5 3 9 -2 9 -10 0 -8 -5 -18
-10 -21 -6 -4 -8 -10 -6 -14 8 -12 -40 -7 -56 7 -8 6 -18 9 -21 5 -4 -3 -7 0
-7 7 0 7 -3 10 -7 7 -13 -13 -33 16 -33 48 0 28 -4 33 -31 39 -43 8 -94 8 -85
-1 8 -8 13 -9 41 -12 8 0 15 -5 15 -11 0 -5 -6 -8 -12 -6 -7 1 -10 1 -5 -1 15
-9 6 -22 -10 -16 -16 6 -17 5 -3 -13 14 -17 13 -18 -1 -7 -9 7 -19 9 -24 5 -4
-4 1 7 11 23 19 30 18 30 -16 -4 -19 -19 -34 -39 -32 -44 1 -4 -2 -6 -8 -2 -6
3 -8 11 -4 16 3 5 0 8 -7 7 -7 -2 -13 2 -14 9 0 6 -3 15 -7 19 -4 3 -6 -2 -3
-14 3 -18 -8 -22 -35 -12 -3 1 -9 1 -15 0 -5 -1 -7 2 -3 5 4 4 1 17 -7 28 -12
16 -12 24 -2 36 10 14 10 14 -4 4 -9 -7 -20 -9 -25 -5 -4 4 -2 -1 5 -11 13
-16 12 -17 -12 -8 -24 9 -25 8 -22 -20 3 -21 0 -29 -8 -26 -7 2 -11 14 -11 26
1 16 -2 19 -11 11 -6 -5 -15 -6 -19 -2 -4 4 -7 2 -6 -3 5 -22 -1 -35 -15 -35
-8 0 -13 -6 -11 -12 1 -7 1 -10 -1 -5 -3 4 -8 5 -13 2 -4 -3 -6 5 -3 17 5 21
4 21 -8 7 -29 -34 -61 -48 -85 -39 -15 6 -26 5 -30 -1 -4 -6 -11 -5 -22 3 -13
11 -14 11 -8 -1 6 -10 4 -12 -11 -7 -13 4 -25 0 -34 -11 -13 -17 -13 -17 6 -3
15 11 14 7 -4 -13 -24 -26 -38 -36 -27 -19 3 5 -1 9 -9 9 -8 0 -12 -4 -10 -8
10 -16 -24 -17 -37 -1 -12 16 -11 16 7 2 18 -14 19 -14 6 2 -9 13 -18 15 -30
9 -21 -12 -25 -51 -5 -51 9 0 12 5 8 13 -4 6 -3 8 1 4 16 -14 13 -35 -4 -32
-9 2 -18 4 -21 5 -3 1 -8 2 -12 1 -4 0 -5 5 -2 13 4 10 -2 12 -20 9 -18 -4
-23 -10 -19 -22 4 -9 3 -13 -2 -9 -4 4 -15 2 -23 -5 -9 -6 -13 -7 -9 -1 4 7
-3 10 -20 9 -28 -1 -56 -31 -46 -49 5 -7 2 -7 -8 1 -8 6 -18 11 -24 11 -5 0
-11 6 -13 14 -2 9 0 8 7 -2 13 -19 14 0 1 20 -5 8 -10 10 -10 4 0 -7 -9 -14
-20 -17 -11 -3 -18 -1 -15 3 3 5 0 12 -6 16 -8 4 -9 3 -5 -4 5 -9 -4 -11 -33
-8 -32 3 -38 1 -34 -11 5 -12 7 -12 14 -1 5 7 9 9 8 3 0 -5 -13 -25 -28 -43
-20 -24 -31 -30 -36 -21 -5 7 -4 10 1 7 5 -3 17 5 27 17 10 15 13 26 7 30 -5
3 -10 2 -10 -3 0 -15 -84 -69 -99 -64 -8 3 -11 0 -7 -6 3 -6 -1 -9 -11 -7 -10
1 -23 -1 -29 -6 -6 -5 -11 -4 -11 4 0 7 -3 25 -7 41 -4 18 -3 25 4 21 5 -3 10
-17 10 -30 0 -15 5 -22 15 -21 9 1 16 6 16 12 0 5 5 14 10 21 7 8 5 11 -8 8
-22 -3 -45 14 -36 28 4 6 1 7 -7 2 -10 -6 -12 -4 -7 8 5 13 1 17 -15 17 -16 0
-18 3 -9 14 8 9 8 16 2 20 -18 11 -31 -27 -16 -47 10 -14 14 -15 18 -5 3 7 6
2 6 -12 0 -14 -4 -32 -9 -40 -5 -8 -10 -11 -10 -6 0 5 -6 3 -13 -3 -8 -6 -17
-8 -21 -4 -4 4 -4 0 0 -10 5 -15 3 -16 -19 -8 -22 9 -25 8 -20 -7 4 -9 10 -20
15 -23 5 -3 2 -12 -7 -19 -9 -7 -15 -9 -14 -4 3 19 -1 35 -9 30 -20 -12 -6 26
17 46 18 16 21 17 11 4 -14 -18 -14 -18 6 -6 17 10 19 16 10 26 -6 7 -15 11
-20 11 -4 -1 -10 6 -11 16 -2 9 1 15 5 12 5 -3 11 -1 15 5 4 6 11 8 16 4 6 -4
6 -11 -1 -19 -8 -9 -8 -15 0 -20 6 -4 9 -1 8 7 -2 7 3 12 10 11 18 -4 15 11
-6 30 -15 13 -21 14 -32 4 -10 -10 -11 -9 -4 3 5 8 9 18 10 23 1 4 2 9 3 12 0
3 10 1 21 -5 16 -9 20 -8 20 5 0 15 -31 21 -44 8 -4 -5 -15 -8 -24 -9 -23 0
-85 -15 -97 -22 -5 -4 -14 -7 -20 -7 -24 -1 -81 -18 -92 -27 -9 -7 -13 -7 -13
1 0 6 -5 11 -11 11 -5 0 -7 -4 -4 -10 3 -5 1 -10 -5 -10 -6 0 -9 -3 -6 -8 2
-4 -36 -7 -85 -7 -49 0 -89 -3 -89 -7 0 -4 -10 -4 -22 1 -13 4 -38 8 -56 7
-17 0 -32 1 -32 4 0 3 -9 11 -21 18 -12 8 -18 9 -14 3 3 -6 -1 -11 -10 -11 -9
0 -13 5 -9 11 4 7 -4 10 -22 9 -44 -3 -46 -2 -33 21 8 15 8 19 0 15 -6 -4 -11
-2 -11 4 0 6 -12 22 -26 35 -24 22 -26 53 -2 39 6 -4 8 -2 4 4 -3 6 -15 9 -26
7 -21 -4 -27 9 -10 20 5 3 6 14 2 24 -8 22 -44 71 -52 71 -4 0 -25 -14 -48
-31z m79 -41 c-11 -11 -13 -10 -7 0 4 7 2 21 -5 30 -12 15 -11 15 6 0 16 -15
17 -20 6 -30z m2033 6 c3 -8 2 -12 -4 -9 -6 3 -10 1 -10 -6 0 -7 -2 -10 -5 -7
-5 5 4 38 10 38 2 0 6 -7 9 -16z m24 -9 c-3 -3 -9 2 -12 12 -6 14 -5 15 5 6 7
-7 10 -15 7 -18z m-278 11 c0 -3 -4 -8 -10 -11 -5 -3 -10 -1 -10 4 0 6 5 11
10 11 6 0 10 -2 10 -4z m-57 -21 c-3 -9 -8 -14 -10 -11 -3 3 -2 9 2 15 9 16
15 13 8 -4z m76 -11 c-6 -7 -15 -11 -21 -8 -5 3 -4 12 3 20 6 7 15 11 21 8 5
-3 4 -12 -3 -20z m435 -20 c3 -8 2 -12 -4 -9 -6 3 -10 10 -10 16 0 14 7 11 14
-7z m-691 -34 c-3 -12 -8 -19 -11 -16 -5 6 5 36 12 36 2 0 2 -9 -1 -20z m-816
-71 c-9 -6 -14 -16 -11 -22 4 -7 3 -8 -1 -4 -18 16 -13 37 8 37 20 -1 20 -2 4
-11z m-49 -6 c-19 -5 -23 -15 -11 -27 4 -3 8 -14 9 -22 2 -13 -1 -13 -17 2
-24 21 -57 28 -73 15 -7 -6 -17 -6 -26 0 -13 9 -13 10 0 7 8 -1 25 3 38 10 12
7 22 9 22 4 0 -5 7 -9 15 -9 9 0 14 5 12 12 -3 6 6 11 22 12 14 0 18 -1 9 -4z
m1944 -25 c-5 -5 -18 -8 -28 -5 -15 4 -14 5 4 6 15 1 21 5 16 13 -5 7 -3 8 5
3 8 -5 9 -11 3 -17z m-1384 -2 c1 -6 4 -24 7 -41 5 -27 4 -27 -8 5 -7 19 -19
34 -26 32 -7 -1 -10 1 -7 6 7 12 32 11 34 -2z m-171 -18 c-3 -8 -6 -5 -6 6 -1
11 2 17 5 13 3 -3 4 -12 1 -19z m243 -4 c0 -8 -19 -13 -24 -6 -3 5 1 9 9 9 8
0 15 -2 15 -3z m-624 -43 c-9 -10 -13 -21 -9 -26 5 -4 2 -5 -5 -1 -11 7 -10
11 2 25 9 10 16 24 17 32 0 11 2 11 6 1 3 -7 -2 -21 -11 -31z m146 -13 c-8 -8
-9 -4 -5 13 4 13 8 18 11 10 2 -7 -1 -18 -6 -23z m1896 7 c-3 -3 -9 2 -12 12
-6 14 -5 15 5 6 7 -7 10 -15 7 -18z m-1925 -10 c-3 -9 -8 -14 -10 -11 -3 3 -2
9 2 15 9 16 15 13 8 -4z m162 -4 c3 -5 2 -12 -3 -15 -5 -3 -9 1 -9 9 0 17 3
19 12 6z m291 -20 c-7 -9 -11 -23 -9 -31 4 -13 3 -13 -6 0 -6 8 -11 10 -11 4
0 -7 -6 -14 -14 -17 -8 -3 -13 2 -12 14 1 11 5 18 9 17 5 -2 12 4 17 13 5 9
16 16 25 16 13 0 13 -3 1 -16z m-470 -16 c16 -14 25 -25 20 -25 -5 0 -3 -6 3
-14 9 -11 4 -13 -30 -10 -41 3 -68 14 -35 14 9 0 15 4 11 9 -3 5 -1 13 5 16 8
5 7 11 -1 21 -18 22 -5 17 27 -11z m-83 -8 c4 3 7 4 7 1 0 -3 -8 -12 -17 -19
-10 -7 -15 -9 -11 -5 4 5 2 16 -5 25 -10 14 -10 14 4 4 9 -7 19 -10 22 -6z
m186 -51 c9 -11 7 -15 -8 -19 -17 -4 -20 4 -12 31 2 5 9 1 20 -12z m1942 5 c6
10 8 8 7 -7 -1 -13 -8 -21 -18 -19 -8 1 -14 5 -12 8 1 4 2 13 3 20 0 8 2 8 6
-2 5 -11 7 -11 14 0z m-2074 -16 c5 -4 2 -5 -6 0 -11 6 -13 4 -8 -8 9 -23 0
-21 -13 2 -7 15 -7 19 5 17 8 -1 18 -6 22 -11z m3 -39 c0 -3 -4 -8 -10 -11 -5
-3 -10 -1 -10 4 0 6 5 11 10 11 6 0 10 -2 10 -4z m2180 -16 c6 -11 8 -20 6
-20 -3 0 -10 9 -16 20 -6 11 -8 20 -6 20 3 0 10 -9 16 -20z m-2033 -12 c-3 -8
-6 -5 -6 6 -1 11 2 17 5 13 3 -3 4 -12 1 -19z m-229 -30 c-6 -16 -21 -14 -24
4 -1 11 3 15 12 11 8 -3 13 -10 12 -15z m98 -13 c-1 -8 -5 -17 -8 -21 -5 -4
-4 16 1 34 3 9 9 -1 7 -13z m-156 0 c0 -1 -10 -10 -22 -21 -14 -12 -18 -13
-10 -3 6 9 10 18 7 21 -3 2 2 5 10 5 8 0 15 -1 15 -2z m47 -54 c-1 -14 -5 -17
-13 -11 -11 10 -24 3 -24 -12 0 -5 4 -7 9 -3 6 3 8 -3 6 -13 -2 -12 3 -18 15
-18 14 0 16 4 9 12 -7 9 -5 11 8 9 10 -2 20 -4 22 -4 3 -1 -6 -13 -20 -27 -13
-14 -19 -25 -14 -24 19 4 55 -12 49 -22 -4 -5 -13 -4 -22 4 -10 8 -27 13 -40
12 -19 -1 -20 1 -10 14 11 13 11 14 0 8 -10 -6 -13 -3 -10 12 2 12 -1 20 -7
19 -5 -1 -8 -6 -7 -12 2 -5 0 -6 -4 -2 -16 16 -12 38 9 49 12 7 25 11 30 10 4
-1 7 3 7 8 0 6 2 10 4 10 3 0 4 -9 3 -19z m189 -33 c4 -7 3 -8 -4 -4 -7 4 -12
2 -12 -5 0 -7 -3 -10 -6 -6 -6 5 3 27 11 27 2 0 7 -5 11 -12z m-276 -2 c0 -2
-9 -6 -20 -9 -11 -3 -18 -1 -14 4 5 9 34 13 34 5z m177 -30 c0 -6 3 -24 6 -39
5 -22 3 -26 -7 -18 -9 7 -16 7 -26 -2 -10 -10 -11 -9 -5 2 5 9 0 20 -15 31
-17 13 -20 19 -10 25 8 5 11 4 7 -2 -4 -6 0 -13 8 -17 13 -5 19 4 17 25 -1 3
5 6 12 6 7 0 13 -5 13 -11z m388 -9 c0 -7 5 -12 12 -12 16 0 26 -12 15 -19
-11 -7 -35 19 -38 41 -2 8 1 12 4 8 4 -4 7 -12 7 -18z m-552 -34 c-6 -15 -29
-17 -38 -3 -3 6 -1 10 4 10 6 0 11 7 11 15 0 13 2 13 14 3 7 -7 11 -19 9 -25z
m508 0 c13 -16 12 -17 -3 -4 -10 7 -18 15 -18 17 0 8 8 3 21 -13z m-400 -52
c-4 -3 -10 -13 -13 -20 -3 -12 -6 -12 -11 2 -4 10 -2 17 6 17 8 0 8 3 -2 9 -8
5 -10 14 -6 21 6 10 11 9 22 -5 7 -11 9 -21 4 -24z m189 24 c0 -8 -2 -15 -4
-15 -2 0 -6 7 -10 15 -3 8 -1 15 4 15 6 0 10 -7 10 -15z m212 1 c7 4 8 2 4 -5
-9 -13 -26 -5 -25 12 0 9 2 8 6 -1 2 -6 10 -9 15 -6z m-62 -2 c0 -8 -19 -13
-24 -6 -3 5 1 9 9 9 8 0 15 -2 15 -3z m180 -16 c0 -5 5 -6 12 -2 7 4 8 3 4 -4
-4 -6 -12 -9 -19 -6 -8 3 -13 -4 -13 -16 0 -18 4 -22 22 -19 4 0 10 -5 15 -13
5 -7 14 -13 21 -13 7 0 14 -10 14 -22 2 -40 4 -44 13 -38 5 3 13 0 17 -7 4 -7
4 -10 -1 -6 -4 4 -15 2 -23 -5 -13 -10 -14 -9 -7 2 5 9 4 12 -3 8 -13 -9 -4
-43 16 -59 12 -10 14 -10 8 0 -4 6 -3 12 3 12 5 0 13 -5 16 -10 4 -6 10 -8 14
-6 4 3 6 -8 5 -25 -1 -16 2 -26 8 -23 5 3 7 12 4 20 -3 7 -1 16 5 20 6 4 3 14
-8 27 -12 15 -13 18 -2 9 9 -6 18 -9 22 -6 7 8 3 -18 -5 -31 -4 -6 2 -16 13
-23 10 -7 19 -8 19 -4 0 5 7 9 15 9 11 0 12 -3 3 -14 -8 -10 -8 -17 1 -26 10
-9 11 -8 6 5 -8 20 10 19 43 -2 14 -9 22 -24 21 -40 l-1 -25 -7 25 -7 25 -6
-26 c-4 -23 -2 -27 18 -24 13 1 21 -2 18 -6 -3 -5 -1 -9 5 -9 5 0 12 6 14 13
3 7 6 5 6 -5 1 -10 7 -18 14 -19 10 0 10 -2 0 -6 -7 -2 -13 -13 -13 -22 0 -14
-7 -18 -30 -17 -16 1 -34 6 -40 12 -8 8 -5 11 12 9 17 -2 24 3 25 14 1 10 -4
18 -12 18 -7 0 -12 -5 -11 -11 2 -6 1 -8 -1 -3 -3 4 -9 5 -13 2 -5 -3 -12 0
-16 6 -4 8 -3 9 4 5 7 -4 12 -3 12 2 0 17 -13 22 -28 9 -13 -10 -14 -9 -7 3 5
8 11 24 12 35 2 11 8 22 13 23 6 2 7 8 4 14 -4 6 -12 1 -20 -13 -7 -13 -13
-18 -14 -11 0 7 -5 10 -12 6 -6 -4 -8 -3 -4 4 8 14 -10 25 -29 18 -8 -3 -12
-12 -9 -21 3 -8 9 -13 13 -10 4 2 8 -3 8 -12 0 -9 -9 -18 -19 -21 -10 -2 -15
-8 -12 -13 3 -5 10 -7 15 -4 5 4 6 -2 2 -12 -6 -16 -5 -16 10 -4 9 7 14 18 10
24 -3 6 -1 7 6 3 8 -6 9 -12 2 -20 -6 -7 -7 -16 -3 -20 4 -4 1 -6 -7 -4 -8 2
-14 -6 -16 -19 -2 -26 -3 -25 20 -17 9 4 12 10 7 13 -5 3 -1 14 9 25 17 18 18
17 12 -5 -4 -20 -3 -21 7 -9 10 13 11 13 7 0 -2 -8 -13 -20 -25 -26 -17 -8
-19 -13 -9 -24 7 -7 7 -10 1 -7 -6 4 -21 -5 -34 -18 -13 -13 -27 -22 -31 -19
-5 3 -9 -2 -9 -10 0 -9 -5 -16 -11 -16 -5 0 -7 -5 -3 -12 5 -7 3 -8 -7 -2 -19
11 -51 16 -45 6 2 -4 -4 -8 -15 -8 -10 0 -19 5 -19 11 0 5 -5 3 -10 -5 -7 -11
-10 -11 -10 -2 0 7 -4 11 -8 8 -5 -3 -9 1 -9 8 0 8 8 11 20 8 13 -3 18 -1 13
6 -3 6 -1 14 5 18 8 4 9 3 5 -4 -4 -7 -2 -12 4 -12 6 0 8 -5 4 -12 -4 -6 -3
-8 4 -5 5 4 9 15 7 25 -2 9 -4 23 -4 31 -1 10 -9 7 -28 -10 -14 -13 -24 -19
-20 -14 3 6 2 17 -4 25 -7 13 -9 12 -9 -2 0 -9 -4 -20 -10 -23 -6 -4 -7 2 -1
17 6 16 5 29 -4 41 -12 17 -14 17 -30 -5 -9 -13 -15 -16 -12 -8 2 8 1 22 -4
31 -5 10 -3 16 6 16 7 0 11 -7 8 -16 -3 -11 0 -10 11 3 12 15 16 16 17 5 0
-10 2 -11 6 -1 4 10 8 10 19 1 8 -6 14 -8 14 -3 0 14 20 -20 20 -34 0 -7 -5
-10 -12 -6 -7 4 -8 3 -4 -5 9 -13 26 -5 26 12 0 7 6 23 13 37 7 14 12 37 11
52 -2 15 1 30 5 33 5 2 8 -1 7 -8 0 -6 4 -12 9 -12 6 0 9 3 8 7 -2 4 3 6 10 4
6 -1 9 -1 5 1 -4 2 2 19 12 36 11 20 15 39 11 51 -7 19 -8 18 -14 -4 -5 -21
-8 -22 -24 -9 -17 13 -17 13 0 -8 12 -14 15 -23 7 -28 -5 -3 -8 -11 -5 -16 9
-13 -9 -11 -24 4 -7 6 -11 8 -10 2 2 -5 -2 -20 -9 -31 -6 -12 -8 -25 -4 -30 4
-5 0 -3 -9 4 -13 9 -16 9 -16 -3 0 -8 4 -15 9 -15 4 0 8 -4 8 -8 0 -10 -46
-10 -56 0 -3 4 -16 3 -28 -1 -28 -10 -47 -8 -43 4 1 6 13 10 26 10 13 0 25 6
27 13 1 7 0 8 -3 2 -3 -7 -10 -4 -19 7 -13 17 -14 17 -7 -1 4 -14 3 -17 -6
-12 -19 12 -44 -13 -30 -30 6 -8 13 -28 14 -44 2 -25 0 -28 -11 -19 -12 10
-13 7 -10 -12 3 -13 5 -26 5 -29 1 -3 6 2 11 10 6 9 10 10 10 3 0 -19 -21 -27
-31 -12 -7 11 -9 11 -9 1 0 -7 6 -15 13 -18 8 -3 14 -12 14 -21 0 -14 -1 -14
-12 1 -7 8 -14 14 -16 11 -3 -2 -5 5 -6 15 -1 11 2 22 8 25 5 4 2 19 -6 36 -9
17 -21 27 -27 23 -6 -4 -8 -3 -5 3 4 6 0 19 -8 29 -18 24 -18 31 0 31 8 0 11
-5 8 -10 -4 -6 0 -8 10 -4 9 3 16 3 16 -1 -3 -19 2 -33 10 -28 5 4 8 17 7 31
-2 13 1 22 5 19 16 -9 9 6 -10 25 -20 20 -20 20 -26 0 -4 -10 -13 -19 -21 -19
-8 0 -17 -7 -20 -15 -4 -8 -11 -12 -17 -8 -5 3 -7 1 -3 -5 3 -6 -1 -9 -11 -8
-20 3 -24 24 -10 43 11 16 30 6 20 -10 -4 -8 -2 -8 9 1 15 12 18 65 4 79 -6 6
-10 -31 -6 -52 1 -5 -2 -7 -6 -3 -4 4 -13 3 -21 -4 -11 -9 -13 -8 -11 3 2 8
-3 13 -10 11 -8 -1 -11 2 -6 9 4 7 2 10 -7 7 -8 -3 -13 -11 -11 -17 4 -17 -16
-4 -28 19 -7 13 -7 21 2 26 6 4 8 3 5 -3 -4 -6 0 -13 8 -17 8 -3 15 -1 15 4 0
5 9 7 21 5 15 -3 19 0 15 11 -3 9 -1 12 4 9 6 -3 10 0 11 7 0 9 2 10 5 1 3 -7
12 -9 20 -6 9 3 14 -2 15 -13 0 -17 1 -17 8 1 5 11 6 27 3 34 -4 10 -7 11 -10
3 -2 -7 -8 -12 -13 -12 -6 0 -8 4 -5 9 3 4 -7 6 -22 5 -15 -2 -21 -1 -14 2 10
5 9 9 -4 18 -13 10 -14 15 -4 21 9 6 11 4 5 -6 -7 -11 -6 -12 6 -2 11 9 18 8
33 -3 13 -9 23 -10 31 -4 9 7 12 4 11 -12 -1 -25 3 -28 37 -28 18 0 19 2 7 10
-10 6 -11 10 -2 10 6 0 12 5 12 11 0 5 -6 7 -12 3 -10 -6 -10 -4 0 8 10 13 10
18 1 24 -8 5 -10 3 -4 -7 5 -8 0 -7 -10 3 -17 16 -19 16 -34 -1 -16 -18 -17
-18 -28 5 -6 13 -7 22 -3 19 5 -3 11 -1 15 4 3 6 -3 8 -14 6 -21 -4 -41 14
-45 38 -4 28 -28 48 -42 37 -9 -9 -12 -7 -9 7 2 10 4 19 5 21 2 1 3 6 4 11 0
5 4 12 9 15 4 3 5 3 2 -1 -3 -3 0 -12 6 -20 6 -7 8 -13 4 -13 -4 0 -2 -7 5
-15 10 -12 16 -13 26 -4 8 6 11 16 7 22 -3 6 -1 7 6 3 9 -6 9 -11 0 -22 -8 -9
-8 -14 -1 -14 6 0 16 8 21 18 8 13 10 14 11 2 0 -12 2 -12 9 -2 7 11 9 11 14
-1 4 -10 -1 -14 -16 -13 -30 1 -33 -26 -5 -43 22 -13 23 -13 5 6 -14 16 -14
20 -3 20 8 0 14 -3 13 -6 -1 -3 3 -6 8 -6 6 0 9 4 7 8 -1 5 3 5 9 1 9 -5 10
-2 5 12 -6 16 -4 16 14 -3 22 -24 47 -32 34 -11 -4 7 -3 8 4 4 16 -10 15 -46
0 -47 -10 0 -10 -2 0 -6 6 -2 9 -10 5 -16 -4 -7 1 -5 12 3 10 8 20 14 22 13 1
-2 2 0 1 5 -2 4 -6 6 -10 5 -5 -2 -7 13 -5 32 2 32 3 34 16 18 13 -17 13 -17
8 0 -8 23 0 22 26 -6 12 -12 19 -18 15 -13 -4 5 -3 15 2 21 10 13 1 15 -57 17
-21 0 -30 5 -26 12 4 6 -3 3 -14 -7 -17 -15 -22 -15 -32 -4 -9 11 -8 17 2 26
8 6 18 7 22 3 5 -4 5 -2 1 5 -5 9 3 12 29 11 19 -1 35 -6 35 -12 0 -6 6 -1 14
10 15 21 46 29 46 12z m-414 -20 c4 -7 3 -8 -4 -4 -7 4 -12 0 -12 -10 0 -10
-3 -15 -6 -11 -7 6 2 37 10 37 3 0 8 -5 12 -12z m-230 -41 c-1 -24 -8 -54 -17
-67 -14 -21 -15 -21 -29 -4 -11 12 -11 15 -2 10 9 -6 12 -3 10 10 -2 11 2 18
10 17 6 -2 13 4 13 12 4 47 8 65 13 65 2 0 3 -20 2 -43z m477 28 c-3 -9 -8
-14 -10 -11 -3 3 -2 9 2 15 9 16 15 13 8 -4z m328 -9 c-1 -3 -4 -6 -8 -7 -5 0
-13 -5 -20 -10 -7 -7 -14 -6 -19 2 -4 7 -3 9 3 6 6 -4 16 0 23 8 12 14 23 15
21 1z m-574 -15 c0 -11 -5 -18 -9 -15 -4 3 -5 11 -1 19 7 21 12 19 10 -4z
m-252 0 c3 -5 2 -12 -3 -15 -5 -3 -9 1 -9 9 0 17 3 19 12 6z m68 -13 c-16 -18
-33 -16 -33 6 0 6 11 12 25 12 23 0 23 -1 8 -18z m214 15 c-4 -3 -2 -11 3 -18
7 -8 5 -12 -4 -12 -8 0 -12 7 -11 16 5 22 4 21 12 21 3 0 3 -3 0 -7z m49 -15
c4 4 3 0 -3 -8 -8 -10 -9 -21 -3 -30 9 -13 10 -13 10 0 0 12 2 12 9 2 4 -8 12
-13 17 -11 5 1 14 -8 20 -20 10 -19 12 -20 18 -6 3 9 10 14 15 10 18 -11 0
-32 -26 -31 -14 1 -28 -5 -31 -13 -2 -8 0 -11 5 -8 5 3 10 0 10 -8 0 -8 -2
-13 -5 -10 -2 2 -13 -6 -23 -18 l-18 -22 5 28 c3 20 1 26 -7 21 -9 -5 -9 -2
-1 12 8 15 7 24 -6 39 -16 19 -16 19 2 5 24 -19 44 -21 50 -5 3 9 -2 12 -14
10 -19 -4 -40 14 -44 37 -1 7 -6 20 -11 28 -7 12 -6 13 7 3 8 -7 19 -9 24 -5z
m439 -16 c-3 -3 3 -11 13 -19 15 -12 14 -13 -8 -1 -14 7 -29 11 -33 10 -5 -1
-6 1 -3 6 3 5 12 9 21 9 8 0 13 -3 10 -5z m-839 -13 c3 -6 1 -16 -6 -22 -10
-9 -12 -8 -6 7 5 14 2 17 -9 12 -9 -3 -13 -2 -10 4 8 13 22 13 31 -1z m124
-40 c0 -10 -5 -21 -10 -24 -6 -4 -7 -11 -4 -17 4 -6 10 -5 15 3 7 11 9 11 9 1
0 -7 4 -10 10 -7 5 3 7 0 4 -9 -4 -11 0 -14 16 -11 17 3 19 1 11 -9 -6 -7 -8
-15 -5 -18 3 -3 0 -9 -6 -13 -6 -3 -9 -3 -8 2 4 13 -29 55 -36 45 -3 -5 1 -15
9 -22 8 -7 15 -18 15 -24 0 -6 -5 -3 -11 7 -6 9 -15 15 -20 11 -5 -3 -9 -2 -8
3 3 18 -2 27 -9 16 -6 -9 -11 -7 -20 7 -7 12 -8 21 -2 25 6 4 9 2 8 -3 -2 -6
2 -10 7 -11 6 -1 10 2 10 7 0 4 4 13 9 20 4 7 3 19 -3 26 -8 9 -7 13 4 13 8 0
15 -8 15 -18z m784 10 c-2 -4 1 -9 6 -11 6 -2 4 -11 -5 -23 -9 -11 -13 -14 -9
-6 5 11 3 13 -9 8 -9 -3 -19 -2 -22 4 -4 5 -3 9 2 8 25 -4 35 1 24 14 -8 10
-7 14 4 14 8 0 12 -4 9 -8z m-534 -24 c14 -19 14 -19 -4 -5 -18 13 -19 13 -14
-1 3 -9 2 -22 -3 -30 -7 -11 -9 -11 -9 -1 0 8 -5 10 -12 6 -7 -4 -10 -4 -6 1
4 4 2 15 -5 24 -11 14 -10 15 7 1 18 -14 19 -13 13 3 -4 11 -3 16 3 12 6 -3
10 -1 10 6 0 7 1 10 3 8 1 -2 9 -13 17 -24z m553 -45 c5 -20 -12 -24 -25 -5
-5 7 7 24 18 25 1 0 4 -9 7 -20z m-549 -6 c3 -8 2 -12 -4 -9 -6 3 -10 10 -10
16 0 14 7 11 14 -7z m640 -45 c-3 -5 -10 -7 -15 -4 -5 4 -9 1 -9 -6 0 -8 -4
-8 -16 2 -14 12 -14 14 2 26 19 14 49 -1 38 -18z m-968 9 c5 4 5 3 1 -2 -12
-15 -34 -15 -34 0 0 9 4 11 12 4 7 -5 16 -6 21 -2z m205 -11 c-10 -9 -11 -8
-5 6 3 10 9 15 12 12 3 -3 0 -11 -7 -18z m889 -3 c0 -8 -19 -13 -24 -6 -3 5 1
9 9 9 8 0 15 -2 15 -3z m-1069 -21 c13 -16 12 -17 -3 -4 -19 14 -22 12 -12
-13 3 -9 10 -14 14 -11 5 3 5 -5 2 -17 -5 -20 -7 -20 -10 -5 -4 18 -5 17 -28
-4 l-23 -22 4 23 c2 12 9 28 16 36 6 8 8 14 3 14 -7 0 15 19 22 20 1 0 8 -8
15 -17z m146 2 c0 -8 -4 -12 -9 -9 -5 3 -6 10 -3 15 9 13 12 11 12 -6z m-105
-13 c-9 -3 -9 -9 -1 -24 8 -14 8 -23 1 -27 -6 -4 -16 -19 -21 -34 -6 -16 -15
-25 -21 -22 -5 3 -10 1 -10 -6 0 -10 -3 -10 -12 -1 -8 8 -8 15 0 25 7 8 9 17
6 20 -4 4 3 4 15 2 18 -3 21 0 16 15 -3 10 -1 21 4 24 5 4 8 15 6 26 -3 14 1
17 13 13 10 -4 12 -8 4 -11z m241 1 c-3 -7 -6 -13 -8 -13 -2 0 -5 6 -8 13 -3
8 1 14 8 14 7 0 11 -6 8 -14z m820 -6 c4 3 7 3 7 0 0 -3 -8 -11 -17 -16 -15
-7 -18 -5 -18 15 0 20 2 22 11 9 6 -8 14 -12 17 -8z m-848 4 c3 -5 2 -12 -3
-15 -5 -3 -9 1 -9 9 0 17 3 19 12 6z m-168 -23 c-3 -8 -6 -5 -6 6 -1 11 2 17
5 13 3 -3 4 -12 1 -19z m23 -14 c0 -21 -4 -25 -17 -20 -15 5 -15 4 1 -9 11 -8
16 -15 11 -15 -12 0 -45 31 -45 43 0 5 7 6 15 3 9 -3 18 1 21 9 9 22 14 18 14
-11z m267 -6 c-3 -8 -6 -5 -6 6 -1 11 2 17 5 13 3 -3 4 -12 1 -19z m-119 -23
c0 -29 -13 -41 -24 -24 -4 8 -3 9 4 5 7 -4 12 -2 12 3 0 6 -5 11 -10 11 -8 0
7 27 16 30 1 0 2 -11 2 -25z m102 1 c0 -16 -2 -18 -9 -7 -7 11 -9 11 -14 0 -3
-9 -6 -6 -6 7 -1 12 5 21 14 21 9 0 15 -9 15 -21z m796 8 c-1 -8 -6 -17 -12
-21 -5 -4 -6 -4 -2 1 4 5 3 14 -2 21 -7 8 -5 12 4 12 8 0 13 -6 12 -13z m-99
-14 c1 -11 -3 -22 -8 -25 -5 -4 -7 -11 -4 -16 3 -5 -2 -6 -11 -2 -13 5 -15 3
-9 -7 5 -9 4 -11 -3 -6 -17 10 -15 26 4 26 8 0 12 5 9 10 -4 6 -1 17 5 25 16
19 15 19 17 -5z m-874 -18 c4 9 6 9 6 1 2 -23 -18 -23 -29 -1 -10 21 -10 22 3
5 11 -14 16 -15 20 -5z m272 8 c3 -5 1 -10 -4 -10 -6 0 -11 5 -11 10 0 6 2 10
4 10 3 0 8 -4 11 -10z m-350 -12 c5 4 4 0 -1 -8 -4 -8 -10 -24 -11 -34 -2 -11
-11 -28 -20 -38 -13 -14 -13 -18 -2 -18 11 0 12 -2 1 -9 -11 -6 -9 -9 7 -14
19 -5 47 14 36 25 -3 3 -8 15 -10 28 -3 17 -1 19 9 11 10 -8 17 -6 30 7 9 10
13 22 9 27 -5 4 -2 5 5 1 11 -6 9 -13 -7 -30 -12 -12 -18 -26 -14 -31 5 -4 2
-4 -6 0 -11 6 -13 4 -8 -7 3 -9 0 -21 -6 -28 -10 -10 -8 -12 6 -7 10 4 16 3
13 -2 -3 -5 1 -11 9 -15 8 -3 15 -13 15 -21 0 -10 5 -13 13 -9 6 4 9 4 5 -1
-4 -4 -2 -15 4 -24 10 -13 10 -14 -2 -4 -11 10 -17 10 -31 -3 -15 -13 -17 -13
-22 0 -4 9 -1 15 6 13 6 -1 13 9 15 22 2 15 0 21 -7 17 -6 -4 -11 -2 -11 3 0
6 -4 11 -10 11 -5 0 -7 -7 -4 -15 4 -8 1 -15 -6 -15 -6 0 -8 -5 -4 -11 4 -7
-2 -7 -17 1 -22 12 -22 13 -4 26 20 15 21 14 -33 30 -7 2 -11 8 -7 13 3 5 0
13 -6 17 -8 5 -9 3 -4 -6 5 -8 4 -11 -3 -7 -7 5 -7 14 1 31 10 21 13 22 23 8
9 -12 10 -8 6 17 -3 23 -7 29 -13 20 -5 -8 -9 -10 -9 -5 0 20 33 46 45 36 6
-5 16 -6 20 -2z m205 -3 c0 -2 -6 -8 -13 -14 -10 -8 -14 -7 -14 2 0 8 6 14 14
14 7 0 13 -1 13 -2z m111 -19 c5 3 6 10 3 16 -4 6 -2 8 4 4 6 -3 9 -15 7 -26
-2 -11 1 -22 6 -25 5 -4 7 -11 3 -16 -3 -5 -10 -7 -15 -3 -5 3 -7 9 -4 14 10
17 -14 20 -29 4 -15 -14 -17 -14 -22 0 -8 21 3 49 16 41 5 -3 11 0 11 7 1 7 3
5 6 -5 2 -9 9 -15 14 -11z m247 -1 c-3 -3 -9 2 -12 12 -6 14 -5 15 5 6 7 -7
10 -15 7 -18z m-708 -26 c-6 -10 -13 -19 -16 -19 -2 0 0 8 5 19 6 10 7 22 3
26 -4 5 -1 5 6 1 9 -5 9 -12 2 -27z m1036 -2 c-1 -11 -10 -21 -18 -23 -14 -2
-17 13 -8 36 1 3 2 8 1 12 0 4 6 5 14 2 8 -3 13 -15 11 -27z m-526 -17 c-12
-16 -24 -30 -26 -30 -3 0 4 14 16 30 12 17 24 30 26 30 3 0 -4 -13 -16 -30z
m-440 6 c0 -2 -6 -9 -14 -15 -11 -9 -16 -9 -22 0 -4 7 -3 9 4 5 6 -3 13 -2 17
4 6 10 15 14 15 6z m340 -12 c0 -8 -19 -13 -24 -6 -3 5 1 9 9 9 8 0 15 -2 15
-3z m217 -24 c2 -13 -3 -18 -17 -17 -17 1 -18 3 -5 17 8 9 13 20 10 23 -3 4
-2 5 2 2 4 -3 8 -14 10 -25z m265 17 c-7 -8 -7 -18 -2 -27 6 -8 10 -19 9 -25
0 -5 -6 1 -14 15 -7 14 -16 24 -19 23 -3 -2 -6 0 -6 5 0 4 4 7 9 7 5 0 13 3
17 8 12 12 17 8 6 -6z m95 -6 c0 -11 -5 -18 -9 -15 -4 3 -5 11 -1 19 7 21 12
19 10 -4z m-531 -38 c-5 -15 -3 -14 10 2 15 19 15 19 8 -10 -4 -16 -11 -32
-16 -33 -4 -2 -5 -9 -2 -14 4 -7 2 -8 -4 -4 -6 3 -9 15 -7 26 2 11 -1 22 -6
25 -11 8 -2 25 13 25 5 0 7 -8 4 -17z m-395 -3 c5 -35 2 -44 -11 -47 -13 -4
-13 -3 0 6 10 7 11 11 3 11 -7 0 -10 7 -6 17 5 12 3 14 -7 8 -9 -5 -11 -4 -6
3 9 15 26 16 27 2z m32 -20 c3 -11 0 -23 -5 -27 -7 -3 -8 -1 -4 5 4 7 3 12 -1
12 -5 0 -9 9 -10 20 -2 25 13 18 20 -10z m244 8 c-3 -8 -6 -5 -6 6 -1 11 2 17
5 13 3 -3 4 -12 1 -19z m309 0 c3 -4 -1 -5 -10 -4 -8 1 -18 5 -22 8 -3 4 1 5
10 4 8 -1 18 -5 22 -8z m219 -8 c3 -6 -1 -7 -9 -4 -18 7 -21 14 -7 14 6 0 13
-4 16 -10z m-250 -10 c3 -6 -1 -7 -9 -4 -18 7 -21 14 -7 14 6 0 13 -4 16 -10z
m61 -16 c1 -9 0 -13 -4 -10 -3 4 -7 14 -8 22 -1 9 0 13 4 10 3 -4 7 -14 8 -22z
m-156 -18 c0 -18 -38 -28 -47 -13 -3 7 -3 9 1 5 11 -9 36 14 28 26 -3 5 0 6 6
2 7 -4 12 -13 12 -20z m48 0 c1 -14 -4 -23 -13 -23 -12 0 -12 3 -2 16 10 12 9
14 -5 8 -11 -4 -18 -2 -18 6 0 24 36 17 38 -7z m-449 -34 c0 -14 -2 -14 -9 3
-5 11 -9 14 -9 6 -1 -11 -4 -11 -16 -1 -8 7 -12 16 -9 21 8 14 44 -10 43 -29z
m346 9 c3 -5 2 -12 -3 -15 -5 -3 -9 1 -9 9 0 17 3 19 12 6z m-218 -27 c0 -7
-5 -10 -10 -7 -7 4 -8 -1 -4 -13 7 -19 7 -19 -8 0 -8 10 -12 22 -10 26 7 12
32 7 32 -6z m319 -8 c2 -14 -31 -15 -43 -1 -5 4 -3 5 3 2 7 -4 15 0 18 9 7 18
19 12 22 -10z m-393 -6 c9 -10 9 -11 0 -6 -8 4 -13 2 -13 -5 0 -7 -3 -9 -7 -6
-3 4 -13 1 -22 -5 -9 -7 -13 -8 -9 -4 4 5 2 16 -5 25 -11 14 -10 15 7 1 18
-14 19 -13 14 2 -8 19 16 19 35 -2z m94 -2 c-3 -8 -6 -5 -6 6 -1 11 2 17 5 13
3 -3 4 -12 1 -19z m130 7 c0 -8 -4 -12 -9 -9 -5 3 -6 10 -3 15 9 13 12 11 12
-6z m-144 -78 c-16 -31 -27 -29 -28 6 -1 18 4 23 21 23 22 0 22 -1 7 -29z
m-98 3 c-3 -5 -12 -10 -18 -10 -7 0 -6 4 3 10 19 12 23 12 15 0z m55 -50 c-6
-11 -13 -20 -16 -20 -2 0 0 9 6 20 6 11 13 20 16 20 2 0 0 -9 -6 -20z m147
-15 c0 -8 -12 -25 -26 -37 -14 -13 -23 -19 -19 -14 4 5 3 15 -4 23 -9 11 -8
13 3 11 8 -2 13 3 11 10 -1 8 2 11 7 8 5 -4 12 -2 16 4 9 14 12 13 12 -5z
m157 -4 c9 -15 -18 -31 -34 -21 -12 8 -12 10 3 10 10 0 15 5 12 10 -3 6 -2 10
4 10 5 0 12 -4 15 -9z m181 -884 c108 -14 141 -20 150 -25 5 -3 52 -12 105
-19 97 -13 263 -39 290 -46 8 -2 30 -7 48 -11 25 -6 32 -12 27 -23 -4 -13 -3
-14 10 -3 8 7 15 9 15 4 0 -5 32 -10 71 -11 54 -2 75 -7 86 -20 8 -10 11 -12
7 -4 -6 11 -3 13 12 7 10 -4 27 -10 37 -12 34 -8 62 -14 84 -18 32 -6 63 -25
63 -39 0 -7 -4 -6 -10 3 -8 12 -10 11 -10 -6 0 -12 6 -21 15 -21 9 0 15 9 15
23 0 17 4 21 20 17 11 -3 22 -9 25 -13 3 -5 -4 -6 -15 -3 -22 6 -29 -20 -9
-33 8 -4 8 -9 0 -17 -19 -19 -12 -31 7 -14 17 15 18 15 19 -3 1 -11 -2 -22 -8
-25 -5 -4 -6 2 -2 12 6 16 5 16 -10 4 -9 -7 -15 -17 -12 -21 2 -4 -4 -15 -15
-25 -11 -10 -16 -23 -13 -29 11 -17 12 -37 2 -30 -5 3 -9 1 -9 -5 0 -5 5 -13
10 -16 6 -4 8 -11 5 -16 -4 -5 -3 -19 1 -32 7 -21 7 -21 15 -2 7 18 8 18 8 2
1 -10 5 -16 10 -13 4 3 8 -2 8 -12 0 -33 3 -43 12 -38 4 3 7 16 6 29 -2 15 2
24 11 24 10 0 11 -4 4 -11 -22 -22 -9 -28 14 -7 22 20 24 21 21 5 -2 -11 -4
-19 -5 -19 -7 0 -6 -36 1 -41 8 -4 13 8 11 27 -1 3 5 6 13 6 8 0 13 -5 12 -11
-1 -6 3 -10 10 -9 8 2 10 -4 6 -15 -6 -15 -5 -15 10 -3 25 20 21 7 -5 -15 -12
-10 -18 -13 -14 -6 4 7 1 12 -9 12 -13 0 -14 -4 -5 -22 11 -22 10 -22 -4 -4
-12 14 -16 16 -16 5 0 -12 -2 -12 -9 1 -6 8 -7 19 -4 25 4 5 2 6 -3 2 -5 -5
-9 -13 -9 -18 0 -18 -20 -11 -31 11 -7 12 -14 18 -16 13 -3 -4 -3 -3 -2 4 2 7
-1 15 -7 19 -6 3 -8 11 -6 18 3 7 -4 12 -18 12 -13 0 -22 -5 -21 -10 2 -6 1
-7 -2 -3 -2 4 -10 0 -18 -10 -7 -10 -14 -13 -14 -6 0 6 5 15 10 18 6 4 7 11 3
18 -4 7 -9 4 -15 -9 -9 -20 -8 -16 7 49 4 14 1 12 -9 -8 -8 -16 -15 -24 -15
-17 -1 7 4 23 10 35 9 16 9 22 0 25 -6 2 -11 11 -12 20 0 14 -2 13 -9 -3 -9
-21 -11 -16 -14 35 -1 14 -5 31 -10 38 -4 7 -5 16 -2 19 3 4 6 1 6 -6 0 -7 5
-9 12 -5 7 5 5 11 -7 21 -11 7 -14 13 -8 13 6 0 16 -7 23 -15 10 -12 16 -13
26 -4 8 6 14 16 14 21 0 6 -5 6 -14 -1 -10 -9 -16 -8 -26 4 -7 8 -17 12 -24 8
-6 -3 -2 4 9 17 11 13 16 21 10 18 -5 -3 -21 -2 -34 3 -19 7 -22 12 -13 21 7
7 12 17 12 22 0 6 -5 3 -11 -7 -6 -9 -14 -15 -19 -12 -5 3 -12 1 -15 -5 -4 -6
-1 -9 6 -8 10 3 14 -9 21 -59 1 -7 6 -11 12 -10 6 1 9 -5 8 -13 -10 -41 -10
-50 -1 -45 5 4 7 -4 5 -17 -3 -13 -5 -28 -5 -34 -1 -14 -29 -14 -35 1 -6 17
-55 12 -66 -5 -6 -8 -10 -11 -10 -6 0 5 -8 2 -17 -5 -15 -12 -16 -12 -10 4 4
10 3 16 -3 12 -11 -7 -32 30 -22 40 4 3 0 5 -8 3 -8 -2 -14 2 -13 8 2 14 -43
12 -57 -2 -6 -6 -13 -24 -16 -40 -3 -22 -2 -26 6 -14 8 12 9 9 4 -11 -3 -17
-1 -30 7 -35 8 -5 11 -2 7 7 -2 8 1 32 9 54 l13 40 -5 -35 c-4 -31 -2 -36 15
-36 21 0 26 11 10 21 -5 3 -10 15 -10 26 0 11 4 18 10 14 5 -3 7 -13 4 -23 -5
-15 -4 -15 6 -2 10 13 11 13 7 -1 -3 -9 -1 -22 4 -30 7 -12 9 -12 9 1 1 13 2
13 10 -1 6 -10 20 -15 37 -13 15 1 28 3 28 4 0 7 36 6 40 0 3 -5 14 -7 25 -5
13 3 18 0 14 -7 -5 -7 -2 -8 7 -3 11 6 11 5 2 -5 -7 -8 -9 -20 -3 -35 5 -13 6
-26 2 -31 -4 -4 -1 -4 7 1 10 6 12 4 6 -6 -7 -12 -6 -12 7 -1 9 7 14 23 11 40
-3 26 -3 26 7 4 11 -26 2 -82 -10 -62 -10 15 -21 15 -31 -2 -5 -7 -9 -8 -9 -2
0 6 -7 11 -15 12 -8 1 -22 3 -30 4 -8 1 -15 6 -15 11 0 5 8 6 18 2 12 -4 14
-3 6 5 -14 14 -46 2 -37 -14 4 -6 -1 -5 -10 3 -9 7 -17 10 -17 6 0 -5 -8 -1
-18 8 -10 10 -22 14 -25 10 -4 -3 -7 -4 -7 -1 0 3 8 12 17 19 10 8 14 9 10 2
-4 -6 -3 -14 3 -18 5 -3 10 0 10 7 0 10 2 10 8 1 5 -8 13 -9 22 -3 8 5 21 5
32 -1 17 -9 22 -5 19 14 -1 5 3 6 9 2 8 -5 7 -11 -1 -21 -9 -10 -9 -14 0 -14
17 0 25 28 12 44 -12 15 -28 16 -48 3 -6 -4 -15 -3 -18 3 -5 8 -11 8 -20 0
-10 -8 -15 -8 -20 0 -5 8 -11 7 -23 -2 -9 -7 -13 -8 -9 -2 11 19 -18 37 -32
21 -6 -8 -7 -18 -3 -22 4 -5 1 -5 -6 -1 -10 6 -10 11 -1 22 8 10 8 14 1 14 -6
0 -16 -9 -22 -19 -13 -25 -13 -32 1 -28 6 1 13 -4 15 -11 1 -7 0 -8 -3 -2 -3
8 -9 8 -18 0 -9 -7 -16 -6 -25 5 -7 9 -10 18 -7 22 3 3 0 20 -8 38 -7 19 -10
37 -7 41 4 5 0 4 -8 -2 -21 -15 -50 -25 -47 -16 2 6 -11 15 -14 10 -1 -2 1
-14 5 -26 5 -16 14 -22 25 -19 11 2 17 -2 18 -13 1 -11 -7 -20 -20 -24 -21 -5
-21 -5 -3 9 15 11 16 15 5 15 -8 0 -20 -5 -27 -12 -8 -8 -10 -5 -6 16 3 17 1
25 -6 21 -6 -4 -7 1 -3 12 6 16 5 17 -13 3 -12 -9 -15 -9 -7 -1 6 7 9 19 7 26
-3 8 7 12 31 12 22 0 31 -3 23 -9 -8 -5 -9 -8 -2 -8 6 0 18 8 25 18 7 9 10 14
5 10 -13 -11 -48 11 -40 25 4 7 3 8 -2 4 -5 -5 -9 -14 -9 -20 0 -6 -13 -11
-29 -12 -29 0 -44 -19 -45 -55 -1 -13 0 -13 10 0 7 10 9 11 7 2 -2 -8 -7 -12
-12 -10 -4 2 -14 -8 -21 -22 -8 -14 -14 -19 -15 -12 0 7 -4 10 -10 7 -6 -4 -7
1 -3 11 5 13 3 15 -7 9 -9 -5 -11 -4 -6 4 4 6 12 8 18 5 7 -5 9 0 6 14 -4 12
-2 20 3 16 5 -3 9 3 10 13 0 16 1 16 9 -2 8 -18 9 -18 9 -2 1 11 11 33 23 50
23 32 33 61 18 52 -8 -5 -34 30 -35 47 0 3 -4 10 -9 15 -5 4 -6 3 -2 -4 3 -6
2 -14 -4 -18 -9 -6 -15 24 -10 50 1 6 -4 4 -11 -2 -9 -9 -16 -10 -26 -2 -7 7
-13 8 -13 4 0 -4 -8 -1 -17 6 -9 8 -14 9 -10 3 4 -7 -1 -15 -11 -19 -32 -15
-41 -14 -34 3 5 15 4 15 -14 2 -14 -10 -16 -11 -7 0 10 11 10 17 0 29 -8 12
-6 11 9 -2 11 -9 24 -14 28 -10 4 4 4 -1 0 -12 -4 -11 -4 -17 0 -14 4 4 8 15
10 26 3 16 -1 20 -17 19 -12 -1 -21 4 -20 11 2 8 -4 10 -14 6 -10 -4 -14 -2
-9 5 3 6 2 14 -4 17 -6 4 -9 1 -8 -6 2 -7 -5 -13 -14 -14 -10 0 -17 5 -15 10
1 6 5 9 9 8 5 -2 5 6 -1 36 -1 2 -7 -2 -14 -8 -8 -6 -17 -7 -21 -3 -4 4 -7 2
-6 -3 5 -24 -1 -27 -15 -9 -11 14 -14 15 -9 3 7 -23 -11 -32 -26 -14 -8 10
-17 12 -24 6 -8 -7 -12 -3 -13 12 -2 17 0 19 7 7 5 -8 10 -11 10 -6 0 5 6 3
14 -3 12 -10 14 -9 12 6 -2 11 -10 17 -21 15 -12 -2 -15 1 -9 10 6 10 4 10 -9
-1 -9 -7 -18 -11 -18 -7 -1 3 -2 12 -3 19 -1 6 -8 11 -15 9 -7 -1 -18 1 -25 5
-7 4 -2 -1 11 -13 23 -19 42 -71 22 -59 -5 4 -9 -3 -9 -14 0 -11 -4 -22 -9
-25 -4 -3 -6 6 -3 21 3 18 1 24 -7 19 -6 -4 -8 -12 -5 -18 4 -6 2 -8 -4 -4 -6
3 -9 15 -7 25 2 11 -3 22 -10 25 -10 4 -13 -3 -10 -26 l4 -30 -23 21 c-12 12
-25 19 -28 16 -3 -3 -5 11 -5 32 1 32 -2 38 -19 38 -12 0 -27 5 -35 12 -18 14
-45 -3 -44 -29 0 -10 -3 -18 -7 -18 -39 0 -42 2 -20 11 13 5 20 14 17 19 -5 8
-12 7 -23 -2 -14 -10 -15 -10 -5 2 10 11 9 18 -7 35 l-21 22 58 -3 c32 -1 76
-5 98 -7z m-140 -26 c3 -5 2 -12 -3 -15 -5 -3 -9 1 -9 9 0 17 3 19 12 6z m95
-24 c0 -7 -4 -6 -10 3 -8 13 -10 12 -10 -4 0 -11 -3 -17 -6 -13 -4 3 -4 13 0
22 6 18 26 11 26 -8z m40 -20 c0 -7 -4 -6 -10 3 -8 12 -10 12 -10 1 0 -8 -3
-12 -6 -8 -9 9 6 28 17 22 5 -4 9 -12 9 -18z m267 -44 c-13 -16 -14 -20 -1
-37 10 -14 14 -16 14 -5 0 12 2 12 10 -1 8 -12 10 -12 10 -1 0 8 3 11 6 8 4
-4 2 -13 -4 -20 -7 -8 -9 -16 -6 -19 3 -3 0 -9 -6 -13 -6 -3 -9 -2 -8 3 2 6
-1 9 -7 9 -5 -1 -9 -5 -7 -9 1 -5 -4 -7 -10 -5 -7 1 -12 -4 -10 -12 2 -11 0
-12 -11 -3 -8 7 -18 8 -22 4 -5 -4 -5 -2 -2 4 4 7 -1 18 -10 25 -15 12 -16 12
-10 -4 4 -10 3 -16 -2 -12 -6 3 -9 14 -8 25 1 14 5 16 13 9 9 -7 16 -5 23 9 6
11 7 23 3 27 -4 5 -2 5 4 2 6 -4 19 2 29 13 10 11 20 20 23 20 3 0 -2 -8 -11
-17z m-107 -28 c0 -2 -6 -8 -13 -14 -10 -8 -14 -7 -14 2 0 8 6 14 14 14 7 0
13 -1 13 -2z m7 -30 c0 -8 -4 -12 -9 -9 -5 3 -6 10 -3 15 9 13 12 11 12 -6z
m270 -51 c3 -18 2 -18 -5 -1 -10 24 -15 25 -38 7 -17 -14 -18 -14 -6 2 17 21
46 17 49 -8z m42 -26 c6 1 14 -6 18 -15 4 -10 13 -22 20 -26 11 -7 9 -14 -7
-35 -21 -26 -71 -39 -67 -18 1 6 -4 10 -12 8 -12 -3 -12 -1 0 14 12 15 12 16
-7 10 -15 -5 -24 -2 -28 9 -3 9 -10 14 -15 11 -11 -7 -9 13 2 32 10 14 -4 16
-21 2 -6 -6 -10 -7 -7 -4 3 4 0 13 -6 20 -8 10 -6 12 10 9 34 -6 43 -15 31
-30 -7 -9 -6 -16 7 -26 14 -12 16 -12 11 2 -4 9 -1 16 7 16 7 0 11 -6 8 -14
-3 -7 -1 -13 5 -13 12 0 24 36 23 70 l0 25 8 -25 c4 -14 13 -24 20 -22z m635
25 c9 -10 36 -15 72 -13 27 0 35 -5 53 -40 11 -22 19 -40 16 -40 -3 0 -8 0
-12 0 -4 0 -8 6 -9 13 -3 37 -17 56 -39 55 -13 -1 -22 -5 -19 -9 2 -4 0 -10
-6 -14 -5 -3 -10 -12 -10 -18 1 -7 9 -2 19 11 24 27 31 28 26 2 -2 -12 2 -20
9 -20 7 0 13 -6 13 -14 0 -8 -8 -13 -19 -11 -10 2 -18 0 -18 -5 0 -12 28 -21
35 -10 3 5 14 7 24 5 15 -3 19 1 16 15 -2 10 3 21 11 24 11 4 12 2 5 -13 -6
-10 -8 -21 -5 -23 2 -3 -2 -11 -11 -18 -21 -17 -19 -36 3 -19 15 12 16 12 5
-2 -7 -9 -11 -18 -8 -21 3 -2 -2 -5 -10 -5 -8 0 -15 8 -15 18 0 10 -4 20 -9
23 -12 8 -29 -16 -26 -36 2 -12 -2 -15 -18 -11 -12 3 -32 5 -44 6 -12 1 -19 5
-17 9 3 5 10 5 16 2 8 -5 9 -1 5 12 -7 18 -6 18 7 2 15 -20 31 -25 20 -6 -4 6
-3 8 3 5 6 -4 17 1 24 10 12 15 12 16 -4 10 -10 -4 -16 -3 -13 1 2 4 1 14 -5
22 -7 13 -9 13 -10 0 -1 -8 -1 -19 0 -24 1 -5 -4 -5 -11 1 -7 6 -21 9 -31 8
-9 -2 -15 1 -11 6 3 5 -2 9 -11 9 -9 0 -14 -4 -11 -9 3 -4 -4 -17 -17 -27 -13
-12 -17 -13 -9 -3 12 16 7 29 -10 29 -5 0 -6 -6 -2 -12 4 -7 4 -10 -1 -6 -4 4
-15 3 -24 -3 -9 -6 -1 2 17 19 37 32 46 59 28 82 -10 13 -9 13 7 1 10 -8 17
-9 17 -3 0 6 -4 14 -10 17 -5 3 -10 10 -10 16 0 11 23 12 34 2z m-206 -26 c13
4 14 3 3 -5 -7 -5 -10 -16 -7 -23 4 -8 0 -5 -8 5 -9 11 -16 25 -15 30 0 6 3 6
5 -1 3 -7 13 -9 22 -6z m-1232 -34 c-1 -7 -8 -19 -16 -26 -12 -10 -12 -9 -2 4
8 10 8 19 1 26 -6 6 -5 10 5 10 7 0 13 -6 12 -14z m1663 -3 c-6 -5 -18 -6 -26
-3 -19 8 -16 11 13 11 17 0 22 -3 13 -8z m-962 -31 c-9 -6 -14 -15 -11 -21 4
-7 2 -8 -5 -4 -14 9 3 36 23 36 6 0 3 -5 -7 -11z m934 -2 c-6 -8 -7 -18 -3
-22 4 -5 1 -5 -6 -1 -10 6 -10 11 -1 22 6 8 14 14 16 14 3 0 0 -6 -6 -13z
m-976 -17 c10 -11 16 -20 13 -20 -3 0 -13 9 -23 20 -10 11 -16 20 -13 20 3 0
13 -9 23 -20z m1074 6 c9 -11 9 -16 -1 -22 -7 -4 -10 -4 -6 1 4 4 3 14 -3 22
-6 7 -9 13 -6 13 2 0 10 -6 16 -14z m36 -4 c-3 -3 -11 0 -18 7 -9 10 -8 11 6
5 10 -3 15 -9 12 -12z m-1113 -51 c-5 -14 -4 -15 14 -1 17 14 18 13 7 -1 -9
-11 -9 -19 -2 -26 8 -8 1 -10 -21 -8 -17 1 -37 8 -43 15 -10 10 -7 10 10 1 25
-12 36 -2 22 19 -7 13 -9 13 -9 0 0 -9 -3 -11 -8 -5 -15 21 -35 16 -30 -8 4
-21 1 -23 -29 -22 -31 1 -74 25 -45 25 9 0 10 5 2 19 -7 14 -7 22 2 27 6 4 8
3 5 -2 -3 -6 -2 -16 4 -24 6 -11 9 -11 10 -2 3 27 4 31 12 39 5 4 7 1 5 -7 -1
-8 3 -14 10 -12 9 2 10 -3 3 -16 -5 -10 -6 -24 -1 -32 6 -10 9 -7 12 11 2 17
9 24 26 24 12 0 22 5 21 10 -1 6 -4 9 -8 8 -4 -1 -8 5 -8 13 0 11 6 9 23 -7
14 -13 20 -27 16 -38z m-202 1 c0 -7 4 -11 9 -7 6 3 8 14 6 25 -2 12 0 18 4
16 9 -6 8 -58 0 -54 -3 2 -14 -4 -25 -12 -17 -14 -18 -14 -6 2 9 11 10 18 2
23 -6 3 -7 11 -4 17 4 7 2 8 -5 4 -6 -4 -8 -12 -5 -18 7 -11 -16 -29 -28 -22
-14 9 -9 26 6 21 15 -6 16 9 1 33 -8 13 -7 13 10 0 17 -14 18 -13 12 5 -7 20
-7 20 8 1 8 -11 15 -26 15 -34z m300 32 c0 -8 -19 -13 -24 -6 -3 5 1 9 9 9 8
0 15 -2 15 -3z m242 -19 c-2 -14 -8 -22 -13 -19 -5 3 -5 14 1 25 14 26 18 24
12 -6z m-639 -16 c-8 -8 -13 -7 -18 2 -6 8 -4 10 5 4 10 -6 12 -4 6 11 -6 15
-5 17 5 7 9 -10 10 -16 2 -24z m150 16 c4 -8 3 -16 -1 -19 -4 -3 -9 4 -9 15
-2 23 3 25 10 4z m947 9 c0 -8 -19 -13 -24 -6 -3 5 1 9 9 9 8 0 15 -2 15 -3z
m-613 -26 c-3 -8 -6 -5 -6 6 -1 11 2 17 5 13 3 -3 4 -12 1 -19z m789 -7 c-9
-16 -12 -31 -9 -35 4 -4 13 6 19 21 l13 28 -6 -30 c-5 -29 -5 -29 10 -10 8 11
13 23 11 26 -2 4 4 13 14 20 15 12 16 12 5 -2 -18 -22 -3 -33 15 -11 8 10 7 6
-3 -11 -17 -30 -13 -63 6 -51 8 5 9 3 4 -5 -5 -9 -10 -10 -18 -2 -7 7 -15 7
-26 -1 -13 -10 -14 -10 -3 2 6 8 12 21 12 29 0 11 -4 10 -15 -5 -8 -10 -15
-15 -15 -10 0 5 -9 1 -19 -8 -13 -12 -21 -14 -26 -6 -5 8 -11 7 -23 -2 -14
-10 -15 -10 -5 2 10 11 10 17 -3 31 -12 13 -12 17 -2 15 7 -1 18 -5 25 -9 14
-9 27 9 17 25 -4 6 -3 8 3 5 6 -4 13 0 17 8 3 8 8 15 11 15 3 0 -1 -13 -9 -29z
m-885 -42 c6 -13 5 -17 -6 -15 -8 1 -18 6 -22 11 -4 4 -2 5 5 1 17 -10 15 9
-3 24 -8 7 -15 9 -15 6 0 -4 -5 -4 -10 -1 -6 4 -8 11 -4 16 7 11 40 -15 55
-42z m504 -13 c0 -30 -4 -52 -8 -49 -5 3 -7 19 -5 35 3 16 1 31 -3 33 -4 3 -5
14 -2 25 9 34 17 13 18 -44z m-114 31 c-10 -9 -11 -8 -5 6 3 10 9 15 12 12 3
-3 0 -11 -7 -18z m53 7 c3 -8 2 -12 -4 -9 -6 3 -10 10 -10 16 0 14 7 11 14 -7z
m89 -29 c-7 -21 -13 -19 -13 6 0 11 4 18 10 14 5 -3 7 -12 3 -20z m-326 -22
c-3 -10 -5 -4 -5 12 0 17 2 24 5 18 2 -7 2 -21 0 -30z m101 -7 c-1 -14 -5 -23
-9 -20 -7 4 0 44 7 44 2 0 3 -11 2 -24z m490 -6 c-7 -11 -14 -16 -16 -10 -2 6
-9 7 -14 4 -7 -4 -8 -2 -4 5 4 6 11 9 16 6 5 -3 11 -1 15 5 3 5 8 10 11 10 2
0 -1 -9 -8 -20z m24 -24 c7 4 8 2 4 -5 -9 -13 -26 -5 -25 12 0 9 2 8 6 -1 2
-6 10 -9 15 -6z m-199 -52 c-2 -7 -11 -15 -19 -18 -10 -4 -13 -2 -7 7 11 18
13 38 2 31 -5 -3 -7 -10 -4 -15 4 -5 1 -10 -4 -10 -6 -1 -17 -2 -23 -3 -19 -3
-38 14 -37 33 0 10 4 6 10 -9 9 -23 11 -23 20 -7 6 9 14 15 20 12 5 -4 12 1
15 10 6 14 8 14 19 -2 7 -9 11 -23 8 -29z m178 29 c13 -16 12 -17 -3 -4 -10 7
-18 15 -18 17 0 8 8 3 21 -13z m67 -11 c2 -7 9 -9 15 -5 7 3 5 -2 -3 -13 -9
-10 -15 -26 -14 -34 1 -8 2 -20 3 -26 0 -6 14 -10 30 -9 22 2 28 -2 26 -14 -1
-9 -9 -15 -16 -13 -8 2 -22 4 -31 5 -11 1 -18 9 -18 22 0 16 -2 17 -10 5 -7
-11 -10 -11 -10 -2 0 7 -4 11 -9 8 -5 -3 -15 2 -22 12 -13 15 -12 16 4 3 16
-13 17 -11 12 25 -4 30 -2 35 5 19 9 -18 10 -17 7 6 -3 20 0 26 12 25 8 -2 17
-8 19 -14z m114 -16 c7 5 8 2 3 -5 -5 -9 -10 -10 -18 -2 -7 7 -15 7 -26 -1
-13 -10 -14 -10 -4 1 6 7 9 21 6 30 -3 9 2 6 11 -7 10 -12 22 -19 28 -16z
m113 5 c3 -5 2 -12 -3 -15 -5 -3 -9 1 -9 9 0 17 3 19 12 6z m-288 -16 c0 -8
-4 -12 -9 -9 -4 3 -8 9 -8 15 0 5 4 9 8 9 5 0 9 -7 9 -15z m90 -10 c0 -8 -4
-12 -9 -9 -5 3 -6 10 -3 15 9 13 12 11 12 -6z m60 -14 c-1 -15 -4 -17 -14 -9
-15 12 -17 22 -3 13 6 -3 10 -1 10 4 0 6 2 11 4 11 3 0 4 -9 3 -19z m-168 6
c-2 -1 -13 -9 -24 -17 -19 -14 -19 -14 -6 3 7 9 18 17 24 17 6 0 8 -1 6 -3z
m232 -37 c6 0 7 5 3 12 -5 7 -3 8 6 3 10 -6 9 -11 -4 -21 -14 -9 -15 -17 -7
-32 8 -14 7 -19 -4 -19 -8 0 -12 4 -10 8 3 4 -10 6 -28 5 -27 -1 -32 3 -33 22
-1 15 2 19 10 14 22 -17 47 -22 45 -9 -3 23 2 43 8 30 2 -7 9 -13 14 -13z
m205 -112 c0 -17 -2 -17 -12 -4 -6 9 -15 12 -19 8 -5 -4 -5 -2 -2 4 10 18 33
12 33 -8z m-5426 -4 c0 -8 -19 -13 -24 -6 -3 5 1 9 9 9 8 0 15 -2 15 -3z
m-220 -69 c0 -2 -6 -5 -13 -8 -8 -3 -14 1 -14 8 0 7 6 11 14 8 7 -3 13 -6 13
-8z m-330 -11 c0 -8 -19 -13 -24 -6 -3 5 1 9 9 9 8 0 15 -2 15 -3z m1446 -46
c3 -4 -1 -5 -10 -4 -8 1 -18 5 -22 8 -3 4 1 5 10 4 8 -1 18 -5 22 -8z m5349
-28 c1 -17 0 -28 -3 -25 -3 3 -7 19 -8 36 -2 17 0 28 3 25 3 -3 7 -19 8 -36z
m-5913 -8 c-3 -10 -1 -13 6 -8 7 4 15 1 18 -8 3 -9 12 -12 21 -9 12 5 14 3 8
-8 -7 -11 -6 -12 6 -2 8 6 23 11 34 9 20 -3 29 -32 13 -43 -7 -4 -8 -1 -3 7 6
9 4 11 -5 5 -8 -5 -11 -4 -6 3 3 6 1 14 -5 18 -7 4 -9 3 -6 -3 4 -6 0 -16 -8
-23 -12 -10 -15 -10 -15 0 0 9 -5 8 -18 -3 -18 -16 -32 -14 -32 5 0 5 4 7 9 3
5 -3 12 -1 15 4 4 5 1 13 -5 17 -7 4 -9 3 -5 -4 3 -5 0 -9 -6 -8 -21 3 -37 16
-49 38 -8 15 -8 19 0 14 6 -4 11 -3 11 2 0 5 6 9 14 9 8 0 12 -6 8 -15z m825
3 c0 -8 -4 -12 -9 -9 -5 3 -6 10 -3 15 9 13 12 11 12 -6z m-1197 -6 c5 9 10 8
20 -4 11 -13 10 -15 -3 -9 -10 3 -19 -3 -27 -18 -10 -21 -10 -21 3 -5 10 12
17 14 22 7 3 -5 11 -8 16 -5 5 3 6 -1 3 -9 -5 -12 0 -14 22 -10 16 3 34 10 41
16 10 8 12 7 7 -5 -4 -13 -1 -15 16 -12 13 2 25 7 28 10 3 2 11 0 18 -6 11 -9
16 -6 23 12 5 13 6 29 3 34 -3 6 2 4 11 -4 9 -7 17 -21 16 -30 0 -12 -2 -12
-10 4 -7 16 -8 14 -4 -9 5 -23 3 -27 -9 -23 -9 4 -16 1 -17 -6 0 -8 -2 -7 -6
2 -5 11 -7 11 -14 0 -6 -10 -9 -11 -9 -1 0 6 -5 12 -11 12 -5 0 -8 -4 -5 -9 8
-12 -19 -33 -29 -23 -5 4 -5 1 -1 -6 4 -7 11 -10 16 -7 5 3 11 1 15 -5 4 -6
11 -8 16 -4 5 3 7 9 4 14 -3 5 -1 11 4 15 5 3 14 -2 19 -12 5 -9 17 -18 27
-19 9 -1 14 0 11 3 -3 4 0 13 7 21 9 13 9 14 0 8 -7 -4 -13 -2 -13 3 0 6 5 11
10 11 6 0 10 11 10 24 0 14 4 27 8 30 5 3 7 -8 4 -23 -4 -29 21 -51 34 -29 4
7 9 6 14 -3 8 -12 18 -16 65 -23 29 -5 29 -5 15 -21 -7 -8 -16 -12 -21 -9 -15
9 -10 -3 7 -16 8 -8 14 -9 13 -4 -4 21 2 28 11 14 8 -11 9 -8 6 14 -3 16 -13
36 -23 46 -16 15 -19 15 -30 1 -10 -14 -11 -13 -6 7 3 12 9 22 14 22 12 0 59
-53 59 -67 0 -6 4 -14 8 -17 4 -2 8 8 7 22 0 20 4 26 18 24 9 -2 17 2 17 9 0
8 4 8 13 1 14 -12 35 -11 57 3 8 5 21 10 29 12 8 1 18 8 22 15 7 11 9 11 9 0
0 -7 5 -10 12 -6 7 4 8 3 4 -4 -4 -7 -1 -12 6 -12 9 0 9 -3 -2 -10 -14 -9 -7
-14 13 -11 5 1 6 -3 2 -9 -3 -5 -2 -10 4 -10 5 0 12 6 15 13 2 6 4 3 3 -8 -2
-11 -6 -25 -10 -31 -4 -7 1 -18 10 -25 14 -12 16 -12 11 1 -4 11 0 16 13 17
17 2 18 0 4 -13 -8 -9 -15 -18 -16 -22 0 -4 -2 -15 -4 -25 -2 -9 1 -15 6 -11
5 3 7 9 4 14 -11 18 16 21 33 3 9 -10 16 -17 14 -14 -1 2 5 15 14 29 9 13 11
21 5 18 -6 -4 -11 -3 -11 2 0 17 13 22 29 10 9 -7 13 -8 9 -4 -4 5 0 15 10 23
13 10 14 13 2 11 -8 -2 -19 -7 -23 -13 -5 -6 -7 -5 -5 3 2 8 7 13 12 12 5 -1
13 4 17 12 7 10 9 10 10 -2 0 -10 3 -9 10 5 8 16 8 15 4 -8 -4 -17 -2 -26 4
-23 5 3 7 -3 4 -14 -3 -11 -9 -17 -14 -14 -5 3 -6 10 -3 16 4 7 2 8 -5 4 -9
-6 -9 -11 0 -22 11 -13 16 -11 35 11 13 15 22 32 20 38 -1 7 -1 9 1 5 3 -5 9
-8 14 -8 6 0 8 4 5 9 -4 5 1 8 10 7 8 -1 19 -8 23 -15 5 -7 17 -14 27 -15 16
-3 19 -10 17 -49 -2 -25 2 -49 7 -52 6 -4 9 -1 8 7 -2 7 3 12 10 10 7 -1 15 5
18 13 3 8 11 12 18 8 6 -4 5 1 -3 10 -10 13 -17 15 -27 6 -8 -6 -15 -9 -15 -5
-8 39 -2 51 19 34 13 -11 15 -11 8 2 -4 8 0 6 9 -5 9 -11 19 -19 23 -18 4 0 6
-2 5 -6 -1 -4 5 -8 13 -8 8 0 14 4 14 9 0 5 5 6 10 3 6 -4 8 -10 6 -14 -3 -4
5 -7 17 -6 15 1 22 9 23 22 1 19 -10 23 -36 13 -26 -10 -50 2 -50 25 0 6 5 3
10 -5 5 -8 10 -10 10 -4 0 5 7 19 15 30 15 18 15 18 8 0 -5 -14 -3 -17 7 -11
9 5 11 4 6 -4 -4 -6 -12 -9 -17 -6 -5 4 -9 2 -9 -3 0 -18 13 -20 35 -6 12 8
29 13 36 12 8 -2 13 5 13 15 -2 25 5 21 16 -9 6 -14 14 -22 20 -19 5 3 10 -1
10 -10 0 -9 -4 -14 -9 -11 -11 7 -8 -20 3 -31 4 -4 7 -3 5 2 -1 6 1 18 6 28 6
15 10 16 16 5 5 -7 14 -13 21 -13 7 0 13 -7 14 -15 2 -32 5 -34 19 -16 11 15
15 16 15 5 0 -8 -6 -21 -12 -29 -11 -12 -10 -12 5 -1 18 14 24 2 7 -15 -6 -6
-5 -15 1 -24 9 -13 10 -13 6 2 -3 9 -3 19 1 23 10 9 9 64 0 58 -5 -2 -8 2 -9
9 0 10 -2 10 -6 0 -5 -13 -23 -7 -23 9 0 6 4 8 9 4 15 -9 24 34 11 50 -8 9 -8
15 -2 15 6 0 13 -6 16 -12 3 -7 4 1 3 17 -1 17 -6 33 -12 37 -6 5 -6 8 1 8 6
0 18 -8 25 -17 12 -14 12 -16 0 -8 -11 6 -13 4 -8 -9 4 -10 7 -21 7 -25 0 -4
17 -7 39 -6 34 1 38 -1 33 -19 -4 -15 -7 -17 -10 -6 -4 10 -12 0 -24 -25 l-18
-40 6 34 c4 23 3 31 -5 27 -6 -4 -8 -12 -5 -18 4 -6 3 -9 -2 -5 -5 3 -9 -5 -9
-18 0 -13 3 -21 7 -19 9 6 29 -31 23 -40 -3 -3 0 -2 7 3 8 8 8 14 -1 24 -9 11
-7 19 6 33 10 11 15 15 11 10 -4 -5 -2 -16 4 -23 9 -11 7 -12 -8 -6 -16 6 -14
1 8 -28 15 -19 32 -33 39 -31 7 2 9 -3 5 -13 -4 -10 -2 -14 5 -9 8 4 9 -1 4
-17 -9 -29 -26 -50 -19 -23 3 13 -4 28 -22 44 -15 14 -24 19 -20 13 4 -7 3
-13 -1 -13 -16 0 -12 -39 5 -51 14 -11 15 -11 5 1 -18 20 -16 35 2 20 13 -11
14 -10 9 6 -6 16 -4 17 6 7 12 -11 11 -19 -3 -48 -9 -19 -22 -35 -28 -35 -8 0
-7 6 2 18 12 15 12 16 -2 5 -9 -7 -18 -11 -21 -8 -2 3 -5 -2 -5 -10 0 -8 4
-12 9 -9 4 3 8 1 8 -4 0 -5 15 -8 33 -7 29 3 76 -12 52 -16 -36 -6 -77 -4 -82
4 -3 5 -9 3 -14 -4 -7 -11 -9 -11 -9 -1 0 7 -5 10 -11 7 -6 -4 -13 3 -16 15
-4 16 -8 18 -14 8 -7 -10 -9 -8 -10 7 -1 11 -1 24 0 29 1 5 -5 4 -13 -4 -9 -7
-16 -19 -16 -28 0 -8 -3 -13 -6 -9 -3 3 -17 2 -30 -3 -13 -5 -26 -6 -29 0 -3
5 -18 5 -33 1 -37 -10 -94 -4 -104 12 -6 9 -8 9 -8 -1 0 -8 -5 -10 -12 -6 -6
4 -36 8 -65 9 -30 2 -59 7 -66 14 -7 7 -14 7 -23 0 -8 -7 -14 -7 -19 1 -9 14
-45 13 -45 -2 0 -9 -3 -9 -9 1 -5 8 -18 12 -30 8 -13 -3 -28 1 -37 11 -9 8
-19 11 -22 6 -10 -13 -32 -16 -32 -4 0 5 -7 10 -15 10 -8 0 -15 6 -16 13 0 9
-2 9 -5 0 -4 -9 -11 -9 -29 -1 -14 6 -22 16 -19 22 3 6 0 4 -8 -4 -13 -15 -64
-20 -83 -8 -6 3 -18 4 -28 3 -9 -2 -15 1 -11 6 3 5 0 9 -5 9 -6 0 -11 8 -11
17 0 16 -1 16 -12 0 -12 -15 -16 -15 -41 -2 -15 8 -25 9 -21 4 4 -8 0 -8 -13
0 -11 6 -23 7 -27 4 -3 -3 -6 2 -6 13 0 16 -2 17 -10 4 -11 -17 -32 -20 -42
-5 -5 6 -8 4 -8 -4 0 -11 -4 -10 -16 5 -8 10 -12 13 -8 5 5 -9 3 -12 -4 -7 -7
4 -12 16 -12 27 0 13 4 18 12 13 7 -5 8 -3 3 6 -6 10 -11 9 -22 -5 -7 -11 -13
-13 -13 -7 0 7 -7 12 -15 12 -8 0 -15 8 -16 18 0 10 -3 12 -6 5 -2 -7 -9 -13
-14 -13 -6 0 -7 6 -3 13 4 6 -3 3 -16 -8 -13 -11 -20 -15 -17 -9 4 7 0 15 -9
18 -10 4 -13 2 -9 -7 4 -6 0 -4 -9 7 -8 10 -19 15 -25 12 -5 -4 -12 -2 -16 4
-4 6 -10 8 -15 5 -5 -3 -11 -1 -15 5 -3 5 -16 10 -29 10 -12 0 -26 3 -30 7 -4
4 -13 8 -19 9 -7 0 -20 2 -30 2 -9 1 -16 5 -16 10 4 23 -3 30 -26 26 -14 -2
-25 0 -25 6 0 6 -4 9 -9 6 -5 -3 -15 2 -22 12 -13 15 -12 16 4 3 11 -9 17 -10
17 -2 0 6 5 11 11 11 5 0 8 -4 4 -9 -3 -5 -1 -12 5 -16 5 -3 10 0 10 7 0 9 3
10 8 2 4 -6 15 -10 24 -8 10 1 21 -3 25 -8 4 -7 1 -8 -7 -3 -9 6 -11 4 -5 -5
6 -10 11 -9 21 4 11 16 13 16 18 -2 4 -11 14 -26 24 -34 15 -12 16 -11 4 4
-10 12 -10 18 -1 24 8 4 9 3 5 -4 -4 -7 -2 -13 3 -13 6 -1 17 -2 24 -3 6 -1
11 -8 9 -15 -1 -7 2 -9 9 -6 6 4 9 16 6 26 -3 10 -1 17 3 16 8 -2 10 3 10 25
0 6 -3 8 -7 5 -3 -4 -13 -1 -21 5 -11 10 -17 9 -27 -5 -11 -16 -13 -16 -19 -2
-3 9 -10 14 -15 11 -5 -3 -15 2 -22 11 -8 10 -9 14 -2 10 7 -4 17 0 23 10 10
16 11 16 6 1 -4 -13 -1 -15 11 -11 13 5 15 2 10 -13 -7 -18 -6 -18 6 -2 8 10
17 14 21 10 5 -4 7 0 6 8 -1 8 -1 22 0 30 1 12 3 12 7 1 4 -10 7 -10 13 -2z
m240 5 c0 -8 -19 -13 -24 -6 -3 5 1 9 9 9 8 0 15 -2 15 -3z m58 -3 c-2 -20 3
-31 12 -26 6 4 7 11 4 17 -4 7 -2 8 5 4 9 -6 9 -11 1 -21 -6 -7 -10 -17 -9
-21 1 -5 1 -16 0 -24 -1 -12 -4 -11 -12 3 -8 14 -14 16 -25 6 -8 -6 -14 -10
-15 -8 -6 33 -6 38 4 32 7 -4 8 0 4 11 -5 11 -3 15 5 10 7 -5 9 -2 6 8 -4 8 0
15 7 15 8 0 14 -3 13 -6z m-623 -10 c3 -5 2 -12 -3 -15 -5 -3 -9 1 -9 9 0 17
3 19 12 6z m1232 -6 c0 -8 -4 -12 -9 -9 -5 3 -6 10 -3 15 9 13 12 11 12 -6z
m122 1 c9 -10 7 -17 -6 -27 -16 -12 -17 -12 -6 2 10 12 10 18 1 27 -7 7 -9 12
-6 12 3 0 11 -6 17 -14z m-1151 -21 c-3 -3 -9 2 -12 12 -6 14 -5 15 5 6 7 -7
10 -15 7 -18z m82 15 c0 -5 -2 -10 -4 -10 -3 0 -8 5 -11 10 -3 6 -1 10 4 10 6
0 11 -4 11 -10z m1229 -3 c8 -10 7 -14 -2 -14 -8 0 -14 6 -14 14 0 7 1 13 2
13 2 0 8 -6 14 -13z m-1449 -8 c0 -5 4 -8 8 -5 5 3 9 0 9 -7 0 -20 -43 -14
-44 6 -1 9 5 17 13 17 8 0 14 -5 14 -11z m968 -16 c-2 -11 2 -17 10 -15 8 1
11 -2 7 -8 -5 -8 -11 -8 -19 -1 -7 6 -16 7 -21 3 -4 -4 -1 3 6 16 17 27 21 28
17 5z m5578 -18 c0 -14 -2 -25 -6 -25 -4 0 -6 -15 -4 -32 3 -22 1 -28 -5 -19
-5 8 -6 21 -3 30 5 14 3 14 -10 3 -13 -10 -18 -10 -24 -1 -4 7 -3 9 3 6 6 -4
16 0 23 8 10 12 10 18 0 31 -11 12 -11 15 1 12 8 -2 13 3 11 12 -2 8 0 11 4 7
5 -4 9 -19 10 -32z m-5125 -9 c5 3 12 -2 15 -10 3 -9 10 -14 14 -11 4 3 14 -3
21 -12 10 -12 10 -14 2 -9 -8 4 -13 1 -13 -9 0 -10 5 -13 13 -9 8 5 7 2 -2
-10 -11 -13 -16 -14 -22 -4 -4 6 -5 16 -3 20 3 5 -6 7 -19 4 -20 -3 -26 0 -29
18 -5 26 3 58 10 38 2 -6 8 -10 13 -6z m-422 -13 c-27 -34 -40 -64 -32 -76 5
-9 3 -9 -9 0 -8 7 -19 9 -24 5 -4 -4 -3 1 4 10 11 14 10 18 -5 27 -10 6 -13
11 -6 11 7 0 11 6 9 13 -1 6 -1 9 1 5 3 -5 9 -8 14 -8 6 0 7 6 3 13 -6 9 -5 9
8 -1 12 -10 18 -9 28 3 7 8 15 15 18 15 3 0 -1 -8 -9 -17z m-592 -8 c0 -8 -4
-12 -9 -9 -5 3 -6 10 -3 15 9 13 12 11 12 -6z m53 0 c0 -8 -2 -15 -4 -15 -2 0
-6 7 -10 15 -3 8 -1 15 4 15 6 0 10 -7 10 -15z m1174 -23 c3 -5 -1 -9 -9 -9
-8 0 -12 4 -9 9 3 4 7 8 9 8 2 0 6 -4 9 -8z m4857 -9 c12 -16 12 -17 -2 -6 -9
7 -20 9 -24 5 -5 -4 -5 -1 -1 6 9 16 11 15 27 -5z m-2156 -12 c3 -5 2 -12 -3
-15 -5 -3 -9 1 -9 9 0 17 3 19 12 6z m866 -14 c-1 -12 -15 -9 -19 4 -3 6 1 10
8 8 6 -3 11 -8 11 -12z m-3861 -17 c0 -5 -7 -7 -15 -4 -8 4 -12 10 -9 15 6 11
24 2 24 -11z m327 13 c-4 -3 -1 -13 6 -21 9 -13 9 -14 0 -8 -8 4 -13 2 -13 -4
0 -6 -4 -9 -9 -6 -5 4 -11 1 -13 -6 -2 -6 -11 -12 -19 -13 -10 -2 -14 6 -13
24 1 27 19 35 42 17 7 -5 12 -5 11 0 -2 14 0 24 8 24 3 0 3 -3 0 -7z m3092
-16 c8 -10 7 -14 -2 -14 -8 0 -14 6 -14 14 0 7 1 13 2 13 2 0 8 -6 14 -13z
m-3536 -12 c-3 -9 -8 -14 -10 -11 -3 3 -2 9 2 15 9 16 15 13 8 -4z m3327 11
c0 -2 -8 -10 -17 -17 -16 -13 -17 -12 -4 4 13 16 21 21 21 13z m527 -23 c0 -9
-4 -10 -14 -2 -7 6 -13 12 -13 14 0 1 6 2 13 2 8 0 14 -6 14 -14z m33 -17 c13
-17 13 -18 1 -11 -11 6 -13 4 -8 -9 4 -9 3 -15 -2 -12 -5 3 -8 17 -8 31 0 14
0 25 1 23 1 -2 8 -12 16 -22z m-468 -5 c-5 -14 -4 -14 14 -1 10 8 16 10 12 6
-4 -5 -2 -16 5 -25 10 -14 10 -14 -4 -4 -13 11 -19 10 -33 -6 -9 -10 -18 -28
-19 -39 -1 -16 -5 -19 -19 -11 -13 7 -18 6 -18 -3 0 -9 -3 -9 -10 2 -8 12 -10
12 -11 -5 0 -11 -3 -14 -6 -8 -2 7 3 23 11 35 15 20 14 24 -7 48 l-22 25 25
-21 c21 -17 46 -22 75 -15 3 0 1 9 -4 19 -7 14 -6 19 4 19 8 0 11 -7 7 -16z
m224 4 c-1 -8 -5 -17 -8 -21 -5 -4 -4 16 1 34 3 9 9 -1 7 -13z m94 -40 c0 -5
-5 -3 -10 5 -5 8 -10 11 -10 6 0 -5 -6 -3 -13 3 -8 6 -16 9 -19 6 -3 -3 -11 2
-19 12 -12 15 -12 16 1 8 26 -16 42 -15 36 3 -4 9 3 6 14 -8 11 -14 20 -29 20
-35z m385 33 c5 4 5 1 1 -6 -6 -10 -11 -10 -22 -1 -8 6 -14 14 -14 16 0 3 6 0
13 -6 8 -6 18 -7 22 -3z m-3693 -15 c1 -4 8 -13 16 -19 13 -9 13 -11 -1 -11
-9 0 -19 7 -21 14 -3 8 -10 12 -15 8 -5 -3 -13 0 -17 6 -4 7 -3 9 4 5 6 -3 14
-1 17 5 7 11 16 7 17 -8z m3183 9 c-3 -3 0 -10 5 -17 7 -8 5 -12 -5 -12 -8 0
-13 3 -10 5 3 3 0 10 -5 17 -7 8 -5 12 5 12 8 0 13 -3 10 -5z m462 -9 c0 -7
-3 -11 -5 -8 -3 3 -12 -1 -21 -8 -14 -10 -14 -10 -4 4 7 9 11 18 8 21 -3 2 1
5 8 5 8 0 14 -6 14 -14z m-3524 -17 c3 12 5 9 3 -8 -1 -15 -5 -31 -10 -35 -4
-4 -6 -1 -4 7 2 8 -2 14 -9 13 -7 -2 -17 7 -24 18 -8 15 -8 19 0 15 6 -4 11
-1 11 6 1 7 7 2 14 -11 13 -23 14 -23 19 -5z m1854 2 c-3 -8 -6 -5 -6 6 -1 11
2 17 5 13 3 -3 4 -12 1 -19z m1420 1 c-8 -13 -13 -15 -18 -7 -10 15 -4 25 15
25 11 0 12 -4 3 -18z m-943 -1 c-3 -4 -11 -5 -19 -1 -21 7 -19 12 4 10 11 0
18 -5 15 -9z m873 -10 c-3 -8 -6 -5 -6 6 -1 11 2 17 5 13 3 -3 4 -12 1 -19z
m32 9 c8 -10 7 -14 -2 -14 -8 0 -14 6 -14 14 0 7 1 13 2 13 2 0 8 -6 14 -13z
m-1405 -24 c-11 -49 -14 -109 -4 -94 4 8 7 22 5 32 -2 10 1 22 7 25 7 4 8 2 4
-4 -9 -16 7 -15 22 0 7 7 12 8 12 3 0 -4 9 0 19 9 13 12 21 14 26 6 3 -5 11
-8 16 -5 5 3 6 -1 3 -8 -3 -8 -15 -17 -26 -20 -11 -3 -18 -10 -15 -14 3 -5 2
-15 -3 -22 -10 -17 -33 -4 -24 12 4 7 3 8 -1 4 -12 -10 -16 -39 -5 -32 5 3 11
1 14 -4 4 -5 -2 -8 -11 -7 -10 2 -18 8 -18 14 0 16 -15 27 -16 11 -1 -8 -1
-18 1 -24 1 -5 -4 -4 -11 3 -7 6 -17 12 -22 12 -4 0 -5 -6 -1 -12 5 -10 4 -10
-6 -1 -10 9 -17 10 -27 2 -7 -7 -13 -8 -13 -4 0 4 -8 1 -17 -6 -10 -7 -15 -9
-11 -5 4 5 3 15 -4 23 -6 7 -8 16 -4 20 3 3 -2 15 -11 25 -13 15 -14 19 -3 16
8 -2 14 2 15 9 0 6 3 14 6 17 4 4 5 -15 4 -41 -2 -41 -1 -45 8 -25 l11 23 13
-23 14 -23 -6 25 c-4 17 -3 21 3 11 8 -11 11 -11 16 0 3 8 3 3 0 -10 -4 -16
-3 -21 5 -17 16 10 15 69 -1 60 -7 -4 -10 -4 -6 1 4 4 3 16 -2 26 -8 15 -7 17
10 14 12 -2 23 2 27 10 9 25 14 17 7 -12z m1204 10 c-2 -11 2 -17 10 -15 8 1
11 -2 7 -8 -5 -8 -11 -8 -20 0 -10 8 -14 7 -18 -2 -3 -7 -4 -3 -4 9 1 12 5 19
9 17 4 -3 8 0 8 5 0 6 2 11 5 11 3 0 5 -8 3 -17z m529 2 c0 -8 -4 -12 -9 -9
-5 3 -6 10 -3 15 9 13 12 11 12 -6z m-3613 -11 c3 -8 2 -12 -3 -9 -14 8 -24
-13 -15 -33 12 -28 10 -46 -6 -66 -9 -11 -10 -16 -2 -12 8 5 12 0 12 -13 0
-19 -5 -23 -27 -20 -5 1 -7 6 -5 11 2 6 -5 8 -14 4 -13 -5 -14 -3 -7 6 6 8 7
22 2 33 -4 11 -8 15 -8 10 -1 -6 -14 -10 -30 -10 -25 -1 -27 1 -17 17 6 10 19
21 28 24 10 3 19 10 19 15 1 5 2 15 3 22 0 6 7 13 14 13 6 1 15 3 20 4 4 1 10
2 15 1 4 0 7 4 7 9 0 15 7 12 14 -6z m3042 -10 c1 -9 0 -13 -4 -10 -3 4 -7 14
-8 22 -1 9 0 13 4 10 3 -4 7 -14 8 -22z m109 17 c3 -5 2 -12 -3 -15 -5 -3 -9
1 -9 9 0 17 3 19 12 6z m-649 -35 c0 -19 -4 -32 -8 -30 -5 3 -6 9 -3 14 3 5 1
12 -5 15 -8 5 -7 11 1 21 15 18 15 19 15 -20z m1179 25 c3 -5 2 -12 -3 -15 -5
-3 -9 1 -9 9 0 17 3 19 12 6z m-1550 -20 c-4 -3 -12 -6 -18 -6 -7 -1 -11 -7
-9 -14 1 -7 -2 -9 -8 -6 -8 5 -6 13 6 26 9 10 21 16 26 13 5 -3 6 -9 3 -13z
m608 4 c-3 -9 -8 -14 -10 -11 -3 3 -2 9 2 15 9 16 15 13 8 -4z m74 -4 c0 -11
-5 -18 -9 -15 -4 3 -5 11 -1 19 7 21 12 19 10 -4z m-2793 -6 c-4 -10 0 -13 15
-10 14 3 18 -1 14 -11 -3 -10 0 -12 10 -8 18 7 32 -12 16 -22 -8 -4 -9 -3 -5
4 4 7 2 12 -3 12 -6 0 -11 -8 -11 -17 -1 -12 -6 -7 -15 12 -10 19 -13 22 -9 8
4 -18 1 -23 -15 -23 -24 0 -27 10 -8 29 10 10 9 12 -2 9 -7 -2 -16 4 -18 12
-4 12 -3 12 5 2 7 -11 10 -11 15 2 4 9 9 16 11 16 3 0 3 -7 0 -15z m112 3 c4
4 3 -1 -4 -10 -11 -14 -10 -18 8 -28 15 -8 19 -17 15 -33 -6 -21 -5 -21 9 -3
9 10 13 24 9 30 -3 6 -2 8 2 3 11 -10 46 23 38 36 -3 6 -1 7 6 3 9 -6 9 -11 0
-23 -13 -15 -20 -53 -10 -53 2 0 16 10 30 23 l26 22 -25 -28 c-13 -15 -30 -25
-37 -23 -7 3 -13 1 -13 -4 0 -6 5 -10 10 -10 6 0 10 -8 11 -17 0 -15 2 -15 9
2 4 12 16 27 26 35 18 14 18 14 2 -6 -25 -29 -22 -41 4 -18 l21 19 -17 -27
c-10 -15 -24 -25 -34 -23 -9 2 -21 4 -25 4 -5 1 -6 5 -2 10 3 5 1 12 -4 15 -5
4 -8 -5 -7 -19 3 -19 0 -23 -13 -16 -9 5 -26 7 -38 5 -13 -2 -24 1 -24 6 -2
13 -6 29 -9 33 -7 9 -7 38 1 43 6 3 5 12 -2 20 -7 9 -8 14 -3 13 21 -4 26 2
13 19 -12 15 -12 16 2 5 9 -7 20 -9 25 -5z m1618 4 c3 -5 -1 -9 -9 -9 -8 0
-12 4 -9 9 3 4 7 8 9 8 2 0 6 -4 9 -8z m435 1 c-1 -5 0 -10 1 -13 7 -18 7 -39
0 -35 -5 3 -11 1 -14 -4 -3 -5 -16 -7 -28 -3 -14 3 -19 1 -14 -6 3 -6 1 -14
-5 -18 -8 -4 -9 -3 -5 4 4 7 3 12 -2 12 -5 0 -14 -10 -19 -23 -6 -13 -17 -24
-25 -25 -7 0 -24 -3 -37 -6 -13 -3 -20 -2 -17 2 4 4 13 7 18 7 6 0 13 14 14
30 2 17 1 24 -2 17 -3 -6 -10 -9 -16 -6 -5 3 -16 -3 -24 -15 -12 -16 -19 -19
-34 -11 -10 5 -20 7 -23 2 -2 -4 -2 0 1 8 2 8 5 20 5 26 0 6 6 11 13 11 7 0
11 -4 9 -8 -3 -3 3 -13 12 -20 14 -12 15 -11 9 11 -6 19 -5 21 3 10 8 -11 11
-11 12 -2 3 27 4 31 11 38 4 3 6 -3 3 -15 -2 -11 0 -21 6 -21 5 0 9 6 10 13 0
6 9 -6 19 -28 13 -28 18 -32 14 -14 -3 15 -1 30 4 33 6 4 8 -3 5 -16 -4 -22
-3 -22 11 2 8 14 17 24 20 23 3 -2 13 -3 22 -3 14 0 15 2 3 17 -8 9 -9 14 -3
10 7 -4 17 0 24 8 14 16 21 19 19 8z m28 -8 c0 -8 -4 -12 -9 -9 -5 3 -6 10 -3
15 9 13 12 11 12 -6z m-539 -6 c-2 -6 -8 -11 -13 -11 -6 0 -17 -5 -25 -11 -13
-10 -13 -10 -1 5 7 10 17 15 22 12 5 -3 9 0 9 5 0 6 3 11 6 11 3 0 4 -5 2 -11z
m883 -16 c13 -16 12 -17 -3 -4 -17 13 -22 21 -14 21 2 0 10 -8 17 -17z m-121
-12 c7 -15 7 -19 -5 -17 -8 1 -18 6 -22 11 -5 4 -2 5 6 0 11 -6 13 -4 8 8 -9
23 0 21 13 -2z m-1846 -31 c0 -21 3 -37 7 -34 4 2 6 17 3 32 -3 20 -2 23 5 12
6 -8 15 -15 21 -15 5 0 10 -4 10 -10 0 -5 -4 -10 -9 -10 -18 0 -21 -12 -7 -24
17 -14 40 -5 30 11 -4 7 -2 8 4 4 6 -4 9 -13 6 -21 -7 -16 -34 -28 -34 -15 0
12 -22 9 -32 -5 -5 -6 -8 -5 -8 3 0 7 -4 11 -9 8 -5 -4 -8 2 -6 11 1 10 0 23
-4 28 -10 18 -9 35 2 28 6 -4 8 0 4 10 -3 9 -1 18 6 21 7 2 12 5 12 5 0 1 0
-17 -1 -39z m-254 -31 c-7 -13 -7 -19 0 -19 5 0 10 6 11 13 0 9 2 9 6 -1 2 -6
10 -9 15 -6 6 4 8 3 5 -3 -4 -6 -17 -10 -29 -9 -13 1 -27 -3 -31 -9 -6 -6 -7
-3 -4 6 3 9 1 21 -4 26 -5 5 -11 19 -14 31 -3 16 0 19 12 15 12 -5 14 -2 9 8
-4 8 2 3 13 -9 16 -19 18 -28 11 -43z m325 52 c3 -5 2 -12 -3 -15 -5 -3 -9 1
-9 9 0 17 3 19 12 6z m886 -25 c5 3 6 10 3 16 -4 7 -2 8 5 4 6 -4 8 -12 5 -18
-5 -7 -2 -9 8 -5 12 4 14 1 10 -15 -3 -14 -1 -19 6 -14 6 3 13 2 17 -3 3 -6
-6 -8 -21 -5 -19 3 -24 1 -18 -8 6 -10 3 -9 -9 1 -9 7 -17 10 -17 6 0 -4 -6
-2 -14 4 -11 9 -11 17 -2 36 7 17 12 20 14 10 2 -8 8 -13 13 -9z m-1181 -6 c6
-11 8 -20 6 -20 -3 0 -10 9 -16 20 -6 11 -8 20 -6 20 3 0 10 -9 16 -20z m1370
-5 c11 2 20 -1 20 -7 0 -5 -6 -8 -14 -5 -7 3 -19 0 -25 -6 -6 -6 -11 -9 -12
-6 0 2 -2 15 -5 29 -3 20 -2 22 6 8 6 -9 19 -15 30 -13z m-347 0 c-3 -9 -8
-14 -10 -11 -3 3 -2 9 2 15 9 16 15 13 8 -4z m793 3 c-2 -20 -36 -26 -36 -7 0
5 4 8 9 4 5 -3 12 -1 16 5 8 14 14 13 11 -2z m-2173 -32 c-3 -6 3 -3 14 7 19
17 21 17 34 0 13 -16 12 -17 -3 -4 -17 12 -23 9 -19 -12 3 -20 -33 0 -41 22
-7 20 -6 22 7 11 8 -7 12 -17 8 -24z m1234 2 c-3 -7 -5 -2 -5 12 0 14 2 19 5
13 2 -7 2 -19 0 -25z m-953 7 c3 -8 0 -14 -7 -12 -7 1 -11 -4 -9 -11 1 -8 -2
-11 -8 -7 -6 4 -5 13 3 25 14 24 13 24 21 5z m233 -3 c-4 11 0 15 11 14 9 -2
17 -12 18 -22 1 -16 -6 -20 -32 -20 -20 0 -30 4 -25 9 5 5 7 17 4 26 -4 12 -1
11 11 -4 14 -15 16 -16 13 -3z m467 9 c3 -4 -4 -17 -16 -27 -13 -12 -18 -13
-12 -4 5 8 9 18 10 23 3 15 4 17 8 17 3 0 7 -4 10 -9z m-300 -10 c3 -5 -2 -15
-12 -22 -15 -12 -16 -12 -5 2 7 9 10 19 6 22 -3 4 -4 7 0 7 3 0 8 -4 11 -9z
m43 -12 c-2 -10 -5 -20 -8 -21 -2 -2 -3 -1 -2 1 1 2 -2 11 -7 21 -6 12 -5 17
5 17 8 0 13 -8 12 -18z m152 14 c-3 -20 2 -24 15 -14 10 9 16 9 21 1 5 -8 11
-8 21 1 12 10 13 9 8 -5 -4 -10 -14 -15 -30 -12 -13 3 -26 1 -29 -4 -6 -10
-31 -7 -42 4 -4 4 -1 6 7 4 8 -1 15 3 16 10 2 19 4 22 9 22 3 0 4 -3 4 -7z
m161 -19 c0 -8 -19 -13 -24 -6 -3 5 1 9 9 9 8 0 15 -2 15 -3z m45 -3 c-9 -8
-36 -10 -30 -2 2 4 11 8 20 8 8 0 13 -3 10 -6z m62 -5 c0 -8 -6 -12 -15 -9
-11 5 -11 7 0 14 7 5 13 9 14 9 0 0 1 -6 1 -14z"/>
<path d="M4390 6395 c0 -2 6 -8 13 -14 10 -8 14 -7 14 2 0 8 -6 14 -14 14 -7
0 -13 -1 -13 -2z"/>
<path d="M4695 5980 c3 -5 8 -10 11 -10 2 0 4 5 4 10 0 6 -5 10 -11 10 -5 0
-7 -4 -4 -10z"/>
<path d="M4583 5945 c0 -8 4 -12 9 -9 5 3 6 10 3 15 -9 13 -12 11 -12 -6z"/>
<path d="M4863 5944 c9 -11 14 -23 11 -26 -3 -3 -1 -8 3 -11 5 -3 9 5 9 18 0
14 -2 22 -5 20 -2 -3 -11 1 -20 7 -12 10 -12 7 2 -8z"/>
<path d="M4656 5908 c-25 -33 -27 -49 -4 -31 7 6 21 9 31 8 13 -3 15 0 9 8 -5
7 -8 20 -7 30 4 24 0 22 -29 -15z"/>
<path d="M4793 5915 c0 -8 4 -12 9 -9 5 3 6 10 3 15 -9 13 -12 11 -12 -6z"/>
<path d="M4856 5883 c-6 -14 -5 -15 5 -6 7 7 10 15 7 18 -3 3 -9 -2 -12 -12z"/>
<path d="M4772 5854 c-7 -8 -12 -20 -11 -27 1 -6 1 -21 0 -32 -1 -15 -3 -17
-10 -7 -6 11 -10 10 -15 -4 -3 -9 -4 -19 -1 -22 3 -3 5 0 5 8 0 9 3 10 13 1
14 -11 15 -10 18 44 1 14 5 27 9 30 4 3 7 -3 6 -12 0 -9 5 -18 12 -20 8 -3 10
1 5 14 -3 10 -3 15 1 12 12 -11 15 -48 4 -55 -7 -5 -8 -2 -3 6 5 9 4 11 -3 6
-7 -4 -12 -2 -12 5 0 7 -3 9 -6 6 -4 -4 -3 -12 3 -19 5 -7 8 -19 7 -25 -1 -7
-2 -19 -3 -25 -1 -8 -4 -9 -9 -3 -11 16 -51 15 -45 -1 3 -8 9 -12 13 -9 5 3
12 1 15 -5 4 -7 11 -7 18 -2 7 5 20 8 30 7 9 -2 15 1 11 6 -3 5 0 9 7 9 8 0 7
5 -2 17 -8 10 -9 14 -2 10 6 -4 15 -3 18 3 5 8 11 8 20 0 9 -8 12 -5 10 12 -4
39 -5 41 -12 35 -3 -4 -12 -2 -20 4 -7 6 -13 8 -13 5 0 -4 -10 4 -23 17 -19
21 -24 22 -35 11z m65 -66 c-3 -7 -5 -2 -5 12 0 14 2 19 5 13 2 -7 2 -19 0
-25z"/>
<path d="M4723 5845 c0 -6 6 -12 12 -12 6 0 12 6 12 12 0 6 -6 12 -12 12 -6 0
-12 -6 -12 -12z"/>
<path d="M4644 5765 c-10 -31 -10 -45 1 -42 6 1 9 8 9 15 -1 7 1 11 4 8 3 -3
12 0 20 7 11 8 14 9 9 0 -5 -7 -1 -11 11 -10 10 0 19 9 20 21 1 15 -1 17 -7 8
-7 -11 -9 -11 -14 2 -8 21 -44 16 -53 -9z"/>
<path d="M4957 5764 c-15 -14 -25 -30 -21 -35 3 -5 -9 -24 -26 -42 -40 -40
-52 -71 -43 -105 4 -15 8 -31 8 -37 1 -5 7 -9 15 -7 17 4 31 23 24 33 -2 4 1
11 7 15 8 4 9 -3 4 -27 -4 -25 -3 -30 4 -19 6 8 11 24 11 35 0 16 2 17 9 5 6
-8 7 -19 4 -25 -3 -5 6 1 19 15 17 17 21 27 14 32 -19 13 -24 9 -20 -14 4 -21
3 -21 -7 2 -7 16 -13 20 -16 12 -4 -10 -8 -10 -21 0 -9 7 -13 8 -9 2 7 -12
-19 -41 -29 -32 -11 11 -12 48 -2 54 7 4 8 2 4 -4 -11 -18 10 -14 28 4 15 14
16 14 17 -3 0 -14 2 -13 10 5 7 19 29 23 29 6 0 -3 -4 -2 -10 1 -5 3 -10 -1
-10 -9 0 -10 6 -13 15 -10 16 7 14 46 -5 69 -12 14 11 40 25 27 5 -4 1 4 -8
17 -15 23 -15 26 0 43 24 26 12 22 -20 -8z m-3 -55 c-14 -16 -15 -23 -7 -26 9
-3 10 -10 3 -24 -8 -15 -15 -17 -29 -9 -10 5 -22 6 -27 2 -5 -4 9 12 31 36 40
43 64 60 29 21z"/>
<path d="M4925 5671 c-3 -5 -2 -12 3 -15 5 -3 9 1 9 9 0 17 -3 19 -12 6z"/>
<path d="M4586 5764 c-3 -9 -11 -12 -18 -8 -9 5 -8 2 1 -9 16 -20 23 -16 28
13 3 24 -2 26 -11 4z"/>
<path d="M5060 5731 c-6 -11 -6 -22 -1 -25 5 -3 11 5 13 19 6 30 2 32 -12 6z"/>
<path d="M4660 5657 c0 -13 34 -52 47 -54 6 -1 10 5 8 15 -2 9 -4 21 -4 26 -1
5 -7 3 -15 -3 -11 -10 -17 -8 -25 6 -6 10 -11 14 -11 10z"/>
<path d="M4796 5608 c3 -5 10 -6 15 -3 13 9 11 12 -6 12 -8 0 -12 -4 -9 -9z"/>
<path d="M4166 5918 c3 -5 10 -6 15 -3 13 9 11 12 -6 12 -8 0 -12 -4 -9 -9z"/>
<path d="M4514 5859 c-3 -6 -2 -15 3 -20 5 -5 9 -1 9 11 0 23 -2 24 -12 9z"/>
<path d="M5090 5790 c-12 -7 -10 -9 7 -7 12 0 19 5 17 9 -6 10 -6 10 -24 -2z"/>
<path d="M4140 5720 c-6 -11 -8 -20 -6 -20 3 0 10 9 16 20 6 11 8 20 6 20 -3
0 -10 -9 -16 -20z"/>
<path d="M4181 5654 c0 -11 3 -14 6 -6 3 7 2 16 -1 19 -3 4 -6 -2 -5 -13z"/>
<path d="M4253 5613 c-1 -19 0 -34 2 -31 8 7 13 58 7 62 -4 2 -8 -12 -9 -31z"/>
<path d="M4270 5490 c-9 -6 -10 -10 -3 -10 6 0 15 5 18 10 8 12 4 12 -15 0z"/>
<path d="M4567 5619 c7 -7 15 -10 18 -7 3 3 -2 9 -12 12 -14 6 -15 5 -6 -5z"/>
<path d="M5155 5601 c-3 -5 -2 -12 3 -15 5 -3 9 1 9 9 0 17 -3 19 -12 6z"/>
<path d="M4375 5330 c-3 -5 -1 -10 4 -10 6 0 11 5 11 10 0 6 -2 10 -4 10 -3 0
-8 -4 -11 -10z"/>
<path d="M4469 5233 c-13 -16 -12 -17 4 -4 9 7 17 15 17 17 0 8 -8 3 -21 -13z"/>
<path d="M4717 4348 c12 -14 19 -15 30 -7 7 6 13 14 13 16 0 3 -8 -1 -17 -8
-14 -12 -16 -12 -11 1 4 11 0 16 -13 16 -17 0 -17 -2 -2 -18z"/>
<path d="M4852 4303 c-1 -16 6 -34 20 -47 19 -18 21 -18 15 -2 -10 26 1 38 24
26 11 -6 17 -15 14 -20 -3 -4 1 -7 7 -6 14 2 18 8 18 27 0 6 -6 9 -12 7 -7 -3
-20 4 -29 15 -25 32 -54 31 -57 0z m48 2 c10 -12 8 -14 -9 -10 -14 3 -21 -1
-22 -13 0 -11 -2 -12 -6 -4 -3 7 1 19 7 27 15 18 15 18 30 0z"/>
<path d="M5020 4306 c0 -2 8 -10 18 -17 15 -13 16 -12 3 4 -13 16 -21 21 -21
13z"/>
<path d="M5324 4225 c1 -14 6 -25 11 -25 14 -1 14 28 1 40 -10 7 -13 4 -12
-15z"/>
<path d="M5265 4220 c-4 -6 -3 -9 2 -8 4 2 8 -1 8 -7 0 -5 -4 -9 -8 -7 -5 1
-6 -2 -2 -8 5 -8 11 -7 21 1 11 9 11 15 3 25 -14 17 -16 17 -24 4z"/>
<path d="M5364 4214 c1 -8 4 -15 7 -16 2 -2 3 -1 2 1 -2 2 2 9 7 16 7 8 5 12
-4 12 -8 0 -13 -6 -12 -13z"/>
<path d="M5425 4209 c-3 -4 2 -6 10 -5 21 3 28 13 10 13 -9 0 -18 -4 -20 -8z"/>
<path d="M5414 4177 c1 -7 5 -17 8 -22 6 -10 -3 -35 -15 -38 -3 -1 -14 6 -24
16 -16 14 -20 15 -20 2 0 -8 3 -13 5 -10 3 3 17 -5 30 -17 14 -13 22 -17 18
-10 -4 6 -3 12 3 12 5 0 12 -6 15 -12 3 -7 3 -3 0 10 -3 13 0 30 7 38 7 8 8
14 3 13 -20 -3 -28 2 -16 10 11 7 11 9 -1 14 -8 3 -14 0 -13 -6z"/>
<path d="M5782 4155 c-1 -16 -3 -38 -4 -47 -2 -9 2 -17 7 -17 6 0 9 12 8 27
-1 26 0 25 13 -7 14 -30 13 -35 -2 -52 -9 -10 -21 -17 -27 -16 -6 1 -11 -12
-12 -30 -1 -18 1 -31 4 -30 17 6 47 -42 47 -73 -1 -24 4 -34 16 -36 15 -2 16
1 7 18 -6 11 -8 25 -6 33 3 7 1 17 -5 23 -8 8 -8 15 1 26 9 11 9 16 0 22 -8 5
-10 3 -4 -7 5 -8 4 -11 -1 -6 -5 5 -9 14 -9 20 0 15 -27 16 -37 2 -5 -7 -8 -6
-8 1 0 11 28 39 39 39 3 0 5 3 4 6 -1 3 4 6 11 6 7 0 13 -6 13 -13 0 -7 -4
-11 -8 -8 -4 2 -10 0 -13 -5 -4 -5 -2 -12 3 -15 13 -8 39 27 35 49 -1 10 2 25
8 32 6 7 9 13 7 14 -33 6 -39 5 -39 -7 0 -9 4 -12 10 -9 6 4 7 -1 3 -11 -5
-14 -10 -10 -23 22 -10 21 -15 46 -13 54 4 12 3 13 -5 1 -8 -11 -11 -10 -15 5
-2 12 -4 8 -5 -11z m28 -190 c0 -5 -5 -3 -10 5 -5 8 -10 20 -10 25 0 6 5 3 10
-5 5 -8 10 -19 10 -25z"/>
<path d="M5761 4154 c0 -11 3 -14 6 -6 3 7 2 16 -1 19 -3 4 -6 -2 -5 -13z"/>
<path d="M5579 4155 c-1 -3 -2 -8 -3 -12 -1 -5 -5 -15 -10 -23 -7 -12 -6 -13
4 -3 13 12 23 43 14 43 -2 0 -5 -2 -5 -5z"/>
<path d="M5446 4132 c-2 -4 -1 -14 4 -22 5 -9 4 -20 -3 -30 -10 -13 -10 -13 4
-3 9 7 19 9 24 5 4 -4 0 5 -9 19 -9 14 -13 29 -9 32 3 4 4 7 0 7 -3 0 -8 -4
-11 -8z"/>
<path d="M5679 4128 c-1 -2 -3 -20 -4 -41 -2 -30 0 -35 11 -26 16 13 19 23 4
14 -5 -3 -10 1 -10 10 0 10 5 13 13 9 9 -6 9 -5 0 8 -7 8 -10 18 -6 21 3 4 3
7 0 7 -4 0 -8 -1 -8 -2z"/>
<path d="M5579 4103 c-13 -16 -12 -17 4 -4 9 7 17 15 17 17 0 8 -8 3 -21 -13z"/>
<path d="M5632 4108 c1 -9 -1 -16 -7 -15 -5 1 -9 6 -7 10 1 5 -2 6 -8 2 -8 -5
-8 -11 -1 -19 6 -7 7 -17 3 -21 -4 -5 -1 -5 6 -1 8 5 12 0 12 -13 0 -11 4 -22
9 -26 6 -3 6 6 1 25 -8 29 -6 34 14 31 5 -1 3 6 -4 16 -8 10 -16 20 -18 23 -2
3 -2 -3 0 -12z"/>
<path d="M5420 4069 c0 -5 -4 -7 -10 -4 -5 3 -10 2 -10 -4 0 -5 9 -9 19 -8 11
0 17 6 14 14 -6 16 -13 17 -13 2z"/>
<path d="M5356 4032 c-3 -5 1 -9 9 -9 8 0 12 4 9 9 -3 4 -7 8 -9 8 -2 0 -6 -4
-9 -8z"/>
<path d="M5690 3995 c0 -2 6 -8 13 -14 10 -8 14 -7 14 2 0 8 -6 14 -14 14 -7
0 -13 -1 -13 -2z"/>
<path d="M5301 3954 c0 -11 3 -14 6 -6 3 7 2 16 -1 19 -3 4 -6 -2 -5 -13z"/>
<path d="M5645 3930 c-3 -5 -1 -11 4 -14 5 -4 12 -2 16 4 4 6 12 7 18 4 7 -4
8 -3 4 1 -11 12 -36 15 -42 5z"/>
<path d="M5606 3918 c3 -5 10 -6 15 -3 13 9 11 12 -6 12 -8 0 -12 -4 -9 -9z"/>
<path d="M5480 3901 c0 -6 4 -13 10 -16 6 -3 7 1 4 9 -7 18 -14 21 -14 7z"/>
<path d="M5711 3857 c-8 -10 -7 -14 2 -14 8 0 14 6 14 14 0 7 -1 13 -2 13 -2
0 -8 -6 -14 -13z"/>
<path d="M5923 3848 c-16 -18 -19 -28 -12 -45 11 -29 19 -30 11 -1 -3 13 -1
19 6 15 6 -4 9 0 7 10 -1 10 2 24 8 31 16 21 2 13 -20 -10z"/>
<path d="M5960 3807 c-12 -21 -12 -21 6 -7 10 8 20 15 22 16 2 1 -1 4 -5 7 -5
3 -15 -4 -23 -16z"/>
<path d="M5057 4207 c-13 -21 -14 -27 -3 -36 10 -8 17 -6 29 7 14 15 15 21 4
36 -13 17 -14 17 -30 -7z m21 -24 c-16 -19 -29 -5 -16 17 9 13 14 16 20 7 4
-6 2 -17 -4 -24z"/>
<path d="M5289 4105 c-1 -3 -3 -9 -4 -15 -1 -5 -3 -11 -5 -12 -9 -12 -5 -39 7
-49 8 -7 13 -8 12 -3 -1 5 0 12 1 17 1 4 3 13 4 20 1 6 7 11 13 10 7 -1 9 6 5
20 -5 18 -7 19 -10 4 -2 -9 -8 -15 -13 -11 -5 3 -7 10 -4 15 4 5 4 9 1 9 -3 0
-7 -2 -7 -5z m7 -40 c-1 -8 -5 -17 -8 -21 -5 -4 -4 16 1 34 3 9 9 -1 7 -13z"/>
<path d="M5316 4045 c-9 -26 -7 -32 5 -12 6 10 9 21 6 23 -2 3 -7 -2 -11 -11z"/>
<path d="M5930 4125 c6 -8 8 -20 4 -27 -16 -26 -13 -43 11 -55 22 -10 25 -9
25 9 0 10 4 17 10 13 5 -3 7 -13 4 -23 -5 -16 -5 -16 5 0 7 10 20 15 32 13 16
-3 18 -1 10 9 -6 7 -7 17 -3 22 4 5 -3 1 -15 -9 -24 -21 -43 -6 -23 18 9 11 7
16 -11 25 -17 10 -20 9 -16 -2 2 -7 10 -12 16 -10 7 1 10 -2 6 -8 -3 -6 -10
-8 -15 -5 -4 3 -11 -2 -14 -11 -3 -8 -2 -12 4 -9 6 4 7 -1 3 -11 -4 -11 -8
-13 -11 -6 -2 7 -9 9 -15 5 -8 -5 -8 -2 0 9 7 8 10 18 6 21 -3 4 -1 7 6 7 9 0
9 5 1 20 -6 11 -16 20 -22 20 -7 0 -6 -5 2 -15z"/>
<path d="M6066 4018 c3 -5 10 -6 15 -3 13 9 11 12 -6 12 -8 0 -12 -4 -9 -9z"/>
<path d="M5052 3979 c-7 -12 -11 -24 -8 -27 3 -3 6 1 6 9 0 12 2 12 9 0 6 -9
9 -5 9 13 0 31 0 31 -16 5z"/>
<path d="M6094 3932 c18 -21 29 -23 27 -5 -1 4 -4 8 -8 8 -5 0 -15 4 -23 9 -9
6 -7 1 4 -12z"/>
<path d="M6100 3823 c0 -12 -4 -24 -10 -28 -5 -3 -7 -12 -4 -20 4 -8 10 -12
16 -9 5 3 7 12 4 19 -2 7 0 17 4 21 5 5 5 15 0 24 -8 12 -10 11 -10 -7z"/>
<path d="M1360 3462 c0 -5 6 -15 13 -21 14 -11 27 -5 27 12 0 6 -3 7 -7 4 -3
-4 -12 -2 -20 4 -8 7 -13 8 -13 1z"/>
<path d="M1021 3425 c-1 -5 3 -17 8 -25 6 -8 7 -19 3 -25 -11 -17 -11 -38 -2
-54 7 -11 9 -12 10 -3 0 7 5 10 11 6 8 -5 9 -2 1 12 -8 14 -7 23 5 37 14 14
14 20 3 30 -10 10 -12 9 -7 -5 10 -27 -1 -21 -17 10 -8 15 -15 23 -15 17z"/>
<path d="M1559 3394 c-13 -14 -23 -27 -21 -30 1 -2 0 -4 -3 -4 -3 0 -8 0 -11
0 -4 0 1 12 11 26 9 15 12 23 6 19 -11 -6 -41 -66 -55 -109 -5 -15 -9 -16 -22
-5 -8 7 -14 8 -13 3 4 -21 -2 -28 -11 -14 -7 11 -10 11 -10 2 0 -7 -4 -11 -9
-7 -5 3 -13 0 -17 -6 -4 -7 -3 -9 4 -5 6 3 13 2 17 -3 3 -6 13 -7 22 -4 10 4
14 2 9 -5 -3 -6 -1 -14 5 -18 7 -4 9 -3 6 3 -7 11 20 53 34 53 6 0 8 -4 5 -9
-3 -5 1 -14 9 -21 8 -7 12 -17 8 -23 -4 -6 -1 -7 6 -3 9 6 9 12 -3 25 -9 10
-13 21 -9 24 9 10 23 8 21 -2 -2 -5 2 -9 7 -10 12 -1 14 20 3 35 -4 6 -1 19 8
30 8 10 13 14 10 7 -4 -6 -2 -14 4 -18 6 -4 8 -11 4 -16 -9 -15 -16 -64 -8
-56 4 4 13 2 20 -4 8 -7 14 -7 19 1 3 6 11 8 16 5 5 -4 0 9 -11 28 -16 26 -17
34 -6 34 8 0 12 -6 9 -13 -3 -8 2 -11 14 -9 10 2 20 4 22 4 2 1 -4 10 -14 21
-10 11 -21 18 -24 15 -4 -2 -7 5 -7 16 0 18 2 18 12 5 6 -9 14 -13 17 -10 4 4
-5 15 -18 26 -14 11 -23 23 -20 28 13 22 -15 17 -36 -6z m27 -27 c2 -14 -1
-15 -17 -6 -11 5 -17 15 -13 20 9 14 27 6 30 -14z m-46 -37 c-6 -10 -5 -21 1
-27 6 -6 2 -9 -13 -8 -25 2 -35 20 -19 39 16 20 42 17 31 -4z m62 -67 c-8 -11
-16 -4 -18 17 -4 23 -3 24 8 5 6 -11 11 -21 10 -22z"/>
<path d="M1110 3400 c-12 -8 -10 -10 8 -10 13 0 20 4 17 10 -7 12 -6 12 -25 0z"/>
<path d="M1431 3385 c0 -5 3 -16 8 -23 7 -11 9 -10 15 3 3 9 11 13 17 9 8 -4
9 -3 5 5 -6 9 -11 9 -21 1 -10 -8 -14 -7 -18 2 -3 7 -6 9 -6 3z"/>
<path d="M1495 3380 c-3 -5 -1 -10 4 -10 6 0 11 5 11 10 0 6 -2 10 -4 10 -3 0
-8 -4 -11 -10z"/>
<path d="M1266 3369 c2 -4 12 -5 21 -2 10 4 14 2 9 -5 -3 -6 -2 -13 3 -16 5
-4 8 2 7 11 -2 10 -12 18 -24 19 -12 1 -19 -2 -16 -7z"/>
<path d="M1106 3347 c3 -10 9 -15 12 -12 3 3 0 11 -7 18 -10 9 -11 8 -5 -6z"/>
<path d="M1473 3343 c0 -9 4 -10 14 -2 7 6 13 12 13 14 0 1 -6 2 -13 2 -8 0
-14 -6 -14 -14z"/>
<path d="M2271 3353 c-1 -6 -4 -20 -8 -30 -6 -17 -5 -17 15 1 12 11 22 24 22
30 0 6 -4 5 -9 -3 -7 -11 -9 -11 -14 0 -3 9 -6 9 -6 2z"/>
<path d="M1833 3330 c-15 -23 -4 -34 38 -39 5 0 7 -6 4 -11 -4 -6 -12 -7 -18
-3 -7 4 -6 0 2 -10 14 -18 26 -24 17 -8 -3 5 3 11 14 14 10 3 21 0 24 -7 2 -6
5 -3 5 8 1 12 -4 16 -13 13 -10 -4 -13 -1 -9 8 3 8 9 12 14 9 5 -3 9 0 9 5 0
6 -5 11 -11 11 -5 0 -7 5 -3 12 4 6 3 8 -4 4 -6 -3 -13 -2 -17 4 -10 17 -39
11 -52 -10z m54 -1 c15 -15 5 -39 -13 -32 -8 3 -14 9 -14 15 0 5 6 6 13 3 6
-4 3 1 -7 9 -15 12 -16 16 -5 16 8 0 20 -5 26 -11z m-37 -19 c0 -5 -2 -10 -4
-10 -3 0 -8 5 -11 10 -3 6 -1 10 4 10 6 0 11 -4 11 -10z"/>
<path d="M1220 3301 c0 -11 4 -22 9 -25 4 -3 6 6 3 19 -5 30 -12 33 -12 6z"/>
<path d="M2111 3304 c0 -11 3 -14 6 -6 3 7 2 16 -1 19 -3 4 -6 -2 -5 -13z"/>
<path d="M1273 3276 c-3 -6 -2 -8 2 -3 5 4 19 -3 32 -15 13 -12 33 -22 45 -23
18 -2 19 -1 5 10 -9 7 -14 14 -11 17 2 3 -6 5 -18 4 -13 0 -22 4 -21 10 1 6
-5 11 -13 11 -8 0 -18 -5 -21 -11z"/>
<path d="M1366 3280 c5 -8 9 -18 9 -22 0 -3 3 -9 7 -13 3 -4 5 0 4 9 -1 9 -8
22 -16 29 -10 10 -11 9 -4 -3z"/>
<path d="M2065 3251 c-3 -5 -2 -12 3 -15 5 -3 9 1 9 9 0 17 -3 19 -12 6z"/>
<path d="M2151 3241 c-8 -5 -9 -11 -3 -15 5 -3 12 1 16 9 6 17 6 18 -13 6z"/>
<path d="M2154 3186 c1 -8 5 -18 8 -22 4 -3 5 1 4 10 -1 8 -5 18 -8 22 -4 3
-5 -1 -4 -10z"/>
<path d="M2274 3178 c-4 -7 -4 -10 1 -6 4 4 15 2 24 -5 14 -11 14 -10 2 6 -16
20 -18 21 -27 5z"/>
<path d="M2094 3133 c4 -4 12 -8 19 -9 7 -2 23 -5 36 -8 13 -3 21 -2 17 1 -4
4 -12 8 -19 9 -7 2 -23 5 -36 8 -13 3 -21 2 -17 -1z"/>
<path d="M2281 3094 c0 -11 3 -14 6 -6 3 7 2 16 -1 19 -3 4 -6 -2 -5 -13z"/>
<path d="M1300 3430 c6 -11 13 -20 16 -20 2 0 0 9 -6 20 -6 11 -13 20 -16 20
-2 0 0 -9 6 -20z"/>
<path d="M2161 3368 c6 -10 14 -16 19 -13 13 8 2 32 -15 32 -10 0 -11 -5 -4
-19z"/>
<path d="M1702 3361 c-11 -7 -11 -9 0 -14 9 -3 15 1 15 9 0 8 -1 14 -1 14 -1
0 -7 -4 -14 -9z"/>
<path d="M5330 3200 c-7 -12 -4 -16 13 -17 12 0 16 1 10 4 -7 3 -13 9 -13 14
0 6 4 8 9 4 5 -3 12 -2 15 3 3 5 -2 9 -10 9 -8 0 -19 -8 -24 -17z"/>
<path d="M4320 3181 c0 -6 4 -13 10 -16 6 -3 7 1 4 9 -7 18 -14 21 -14 7z"/>
<path d="M4420 3155 c-7 -8 -15 -13 -19 -11 -3 2 -14 -2 -24 -9 -10 -7 -14
-16 -9 -19 6 -3 13 1 16 10 3 8 9 13 14 11 4 -3 18 0 31 7 13 8 19 16 13 19
-5 4 -15 0 -22 -8z"/>
<path d="M4266 3092 c-3 -5 1 -9 9 -9 8 0 12 4 9 9 -3 4 -7 8 -9 8 -2 0 -6 -4
-9 -8z"/>
<path d="M2433 3150 c6 -24 5 -24 -8 -6 -13 17 -15 18 -15 3 0 -9 -4 -17 -10
-17 -5 0 -10 -4 -10 -10 0 -5 3 -9 8 -9 4 1 9 0 12 -1 30 -11 38 -6 34 22 -2
17 -6 33 -10 37 -4 3 -4 -5 -1 -19z"/>
<path d="M2582 3135 c4 -5 2 -15 -5 -23 -7 -10 -8 -13 -1 -9 12 7 50 -40 40
-50 -2 -3 -11 4 -18 16 -7 12 -17 21 -22 21 -4 0 -4 -6 2 -12 6 -7 11 -17 11
-23 1 -5 12 -10 26 -10 14 0 25 5 25 10 1 6 8 21 16 33 9 13 14 26 11 28 -2 3
-12 -7 -21 -21 -18 -27 -40 -25 -31 3 3 11 -3 22 -18 31 -12 7 -19 10 -15 6z"/>
<path d="M4639 3158 c0 -2 -2 -11 -4 -21 -3 -15 -1 -16 11 -6 7 6 11 15 8 20
-5 9 -13 12 -15 7z"/>
<path d="M4440 3101 c0 -5 7 -12 16 -15 14 -5 15 -4 4 9 -14 17 -20 19 -20 6z"/>
<path d="M3045 3091 c-3 -5 -2 -12 3 -15 5 -3 9 1 9 9 0 17 -3 19 -12 6z"/>
<path d="M3054 3052 c4 -3 14 -7 22 -8 9 -1 13 0 10 4 -4 3 -14 7 -22 8 -9 1
-13 0 -10 -4z"/>
<path d="M2790 3102 c0 -8 -5 -10 -12 -6 -8 5 -8 1 2 -12 8 -10 15 -20 16 -22
1 -2 4 3 7 11 3 8 1 20 -4 28 -7 11 -9 11 -9 1z"/>
<path d="M3995 3080 c-3 -5 -5 -10 -3 -11 27 -6 39 -5 45 4 3 7 3 9 -2 5 -4
-4 -14 -3 -21 3 -8 7 -14 7 -19 -1z"/>
<path d="M3006 3053 c-6 -14 -5 -15 5 -6 7 7 10 15 7 18 -3 3 -9 -2 -12 -12z"/>
<path d="M5188 6753 c-32 -2 -58 -7 -58 -12 0 -8 108 -5 150 4 19 4 21 3 10
-4 -13 -9 -13 -13 4 -28 10 -10 16 -13 12 -6 -4 7 2 18 14 25 44 28 26 31
-132 21z"/>
<path d="M5464 6752 c4 -3 14 -7 22 -8 9 -1 13 0 10 4 -4 3 -14 7 -22 8 -9 1
-13 0 -10 -4z"/>
<path d="M5443 6735 c0 -8 9 -22 19 -32 15 -14 18 -14 18 -1 0 8 -8 22 -18 31
-16 15 -19 15 -19 2z"/>
<path d="M5721 6746 c3 -3 20 -8 38 -11 19 -3 38 -8 43 -11 4 -3 5 2 2 10 -4
11 -19 16 -47 16 -22 0 -38 -2 -36 -4z"/>
<path d="M3656 6718 c3 -5 10 -6 15 -3 13 9 11 12 -6 12 -8 0 -12 -4 -9 -9z"/>
<path d="M5741 6713 c-1 -17 16 -25 25 -12 4 7 3 9 -4 5 -5 -3 -13 0 -15 6 -4
9 -6 10 -6 1z"/>
<path d="M5781 6696 c-6 -7 -8 -22 -4 -31 5 -14 3 -16 -7 -10 -8 5 -11 4 -7
-3 8 -11 25 -11 45 1 9 7 9 12 -3 23 -8 9 -13 20 -10 25 9 14 -1 11 -14 -5z"/>
<path d="M6040 6699 c0 -5 9 -9 20 -9 11 0 20 2 20 4 0 2 -9 6 -20 9 -11 3
-20 1 -20 -4z"/>
<path d="M4740 6681 l-35 -7 30 -5 c17 -2 46 1 65 8 l35 12 -30 -1 c-16 0 -46
-4 -65 -7z"/>
<path d="M5705 6680 c3 -5 8 -10 11 -10 2 0 4 5 4 10 0 6 -5 10 -11 10 -5 0
-7 -4 -4 -10z"/>
<path d="M6148 6673 c7 -3 16 -2 19 1 4 3 -2 6 -13 5 -11 0 -14 -3 -6 -6z"/>
<path d="M4598 6651 c-37 -6 -37 -6 -13 -18 17 -7 23 -8 18 0 -4 6 0 8 10 4 8
-3 21 1 27 9 7 8 9 13 4 13 -5 -1 -26 -5 -46 -8z"/>
<path d="M6223 6639 c9 -5 17 -15 17 -21 0 -6 -7 -5 -17 3 -9 8 -4 -3 12 -24
20 -27 30 -34 36 -25 4 7 3 18 -3 25 -8 11 -7 12 6 7 11 -4 15 -12 10 -23 -11
-28 -9 -46 4 -43 8 1 11 -2 8 -7 -4 -5 -2 -12 4 -16 6 -4 7 -12 3 -18 -3 -7 2
-4 13 5 16 14 23 15 32 6 7 -7 12 -8 12 -3 0 5 12 -2 27 -16 14 -13 23 -18 19
-11 -4 6 -2 12 4 12 6 0 8 6 4 13 -4 6 -3 9 1 4 16 -14 12 -47 -6 -52 -11 -4
-16 -12 -12 -21 5 -13 10 -11 30 10 30 33 41 33 45 1 4 -30 20 -38 24 -12 1 9
-2 15 -7 11 -5 -3 -9 2 -9 10 0 17 -49 66 -67 66 -6 0 -14 -8 -16 -17 -4 -17
-5 -17 -6 0 0 10 -5 15 -11 12 -5 -3 -10 1 -10 9 0 10 6 13 18 10 23 -7 -35
43 -73 63 -16 9 -41 24 -54 34 -13 11 -31 19 -40 19 -14 -1 -14 -2 2 -11z
m102 -100 c-3 -12 -7 -24 -10 -27 -3 -3 -3 5 -1 19 6 30 5 29 10 29 3 0 3 -10
1 -21z m120 -59 c3 -5 1 -10 -4 -10 -6 0 -11 5 -11 10 0 6 2 10 4 10 3 0 8 -4
11 -10z"/>
<path d="M4510 6630 c0 -5 -15 -10 -34 -10 -19 0 -37 -4 -40 -9 -3 -4 7 -6 22
-4 24 3 25 2 7 -7 -19 -9 -10 -9 63 0 2 0 0 5 -3 10 -3 6 -1 10 4 10 6 0 11 5
11 10 0 6 -7 10 -15 10 -8 0 -15 -4 -15 -10z"/>
<path d="M4615 6601 c-3 -5 -1 -12 5 -16 5 -3 10 1 10 9 0 18 -6 21 -15 7z"/>
<path d="M4380 6586 c0 -2 7 -9 15 -16 9 -7 15 -8 15 -2 0 5 -7 12 -15 16 -8
3 -15 4 -15 2z"/>
<path d="M4487 6553 c-3 -5 -1 -17 4 -28 6 -17 7 -16 6 8 -1 28 -3 32 -10 20z"/>
<path d="M4369 6523 c-13 -16 -12 -17 4 -4 16 13 21 21 13 21 -2 0 -10 -8 -17
-17z"/>
<path d="M6510 6421 c0 -11 40 -41 54 -41 5 0 -1 11 -14 25 -24 26 -40 32 -40
16z"/>
<path d="M735 3640 c-4 -6 -12 -7 -18 -3 -7 4 -6 -1 2 -10 15 -19 24 -16 27 8
3 17 -2 19 -11 5z"/>
<path d="M780 3642 c-15 -7 -20 -25 -10 -35 3 -3 16 3 30 14 18 14 20 17 6 12
-13 -4 -17 -3 -12 5 8 13 7 13 -14 4z"/>
<path d="M633 3608 c3 -9 1 -19 -6 -22 -9 -3 -9 -5 0 -5 18 -1 23 13 11 29 -8
12 -9 12 -5 -2z"/>
</g>
</svg>
