<?xml version="1.0" standalone="no"?>
<!DOCTYPE svg PUBLIC "-//W3C//DTD SVG 20010904//EN"
 "http://www.w3.org/TR/2001/REC-SVG-20010904/DTD/svg10.dtd">
<svg version="1.0" xmlns="http://www.w3.org/2000/svg"
 width="840.000000pt" height="859.000000pt" viewBox="0 0 840.000000 859.000000"
 preserveAspectRatio="xMidYMid meet">

<g transform="translate(0.000000,859.000000) scale(0.100000,-0.100000)"
fill="#000000" stroke="none">
<path d="M1637 4994 c-3 -3 -70 -10 -149 -14 -244 -15 -479 -42 -658 -76 -47
-8 -101 -18 -120 -20 -19 -3 -44 -9 -55 -14 -11 -5 -40 -11 -65 -15 -25 -3
-58 -10 -75 -15 -16 -5 -50 -14 -75 -20 -183 -48 -211 -82 -213 -263 -1 -60 3
-111 8 -115 6 -4 19 -23 29 -42 11 -19 64 -78 118 -131 54 -53 98 -101 98
-108 0 -6 4 -11 8 -11 5 0 24 -30 42 -67 19 -38 38 -69 42 -71 4 -2 8 -9 8
-15 0 -12 129 -278 139 -287 3 -3 13 -18 21 -35 35 -71 166 -215 196 -215 7 0
14 -3 16 -7 4 -9 118 -65 163 -81 90 -30 202 -53 290 -60 33 -2 65 -8 70 -12
6 -5 66 -11 135 -15 69 -3 139 -10 155 -15 48 -13 551 -19 785 -9 229 10 434
29 446 42 4 4 23 7 42 7 32 0 116 22 154 41 10 5 22 9 28 9 13 0 144 80 148
91 2 5 9 9 15 9 19 0 133 123 174 187 9 15 20 30 23 33 19 19 119 221 150 305
4 11 13 34 20 50 6 17 25 71 42 120 40 122 52 147 93 188 104 104 302 137 460
77 11 -5 27 -11 35 -14 58 -23 140 -118 140 -162 0 -8 5 -14 10 -14 6 0 10 -8
10 -17 0 -22 28 -102 64 -185 9 -20 16 -43 16 -52 0 -9 5 -16 10 -16 6 0 10
-6 10 -14 0 -13 29 -74 40 -86 3 -3 13 -21 24 -40 46 -87 70 -125 78 -128 4
-2 8 -8 8 -13 0 -6 11 -22 25 -37 14 -15 25 -30 25 -34 0 -4 12 -21 28 -37 15
-16 41 -44 58 -63 33 -36 100 -90 118 -97 6 -2 13 -7 16 -11 9 -11 136 -70
153 -70 9 0 18 -4 21 -9 3 -5 20 -11 38 -14 18 -3 67 -13 108 -22 150 -32 409
-54 645 -53 235 0 573 23 785 53 63 9 138 19 165 22 28 3 55 9 60 13 6 4 34
11 62 15 29 4 55 11 59 16 3 5 16 9 30 9 13 0 32 4 42 9 9 5 57 28 105 51 141
68 270 209 362 395 11 22 23 42 27 43 5 2 8 9 8 15 0 10 19 53 60 137 46 95
103 175 163 230 88 79 127 119 127 129 0 6 4 11 10 11 5 0 12 11 16 25 3 14 9
25 13 25 12 0 41 132 41 182 0 33 -8 56 -35 96 -20 28 -42 52 -50 52 -8 0 -15
4 -15 9 0 5 -12 11 -27 14 -16 3 -86 22 -158 41 -71 19 -142 36 -157 36 -15 0
-30 5 -33 10 -3 6 -24 10 -46 10 -22 0 -48 4 -58 10 -17 9 -87 19 -271 39 -41
5 -118 13 -170 19 -52 6 -124 13 -160 16 -36 2 -141 10 -235 18 -442 34 -949
6 -1370 -78 -44 -8 -102 -18 -130 -21 -27 -3 -52 -8 -55 -12 -4 -6 -57 -16
-190 -37 -19 -3 -44 -9 -55 -14 -11 -4 -49 -13 -85 -20 -74 -14 -115 -22 -220
-45 -110 -25 -168 -34 -338 -52 -139 -15 -164 -15 -290 0 -152 17 -246 32
-260 41 -5 3 -33 10 -63 15 -84 16 -148 29 -219 47 -36 8 -87 19 -115 24 -27
5 -79 17 -115 25 -36 9 -90 20 -120 25 -30 4 -62 11 -70 14 -14 5 -45 11 -200
36 -30 5 -95 14 -145 20 -49 6 -112 15 -140 20 -117 20 -330 31 -616 30 -169
-1 -309 -3 -312 -6z m683 -113 c189 -15 468 -51 590 -75 140 -28 175 -35 235
-51 33 -9 71 -18 85 -21 14 -3 34 -9 45 -14 52 -21 112 -40 128 -40 9 0 17 -4
17 -8 0 -4 16 -14 35 -20 19 -7 60 -32 92 -56 58 -43 87 -86 112 -167 13 -43
15 -169 2 -169 -5 0 -12 -18 -16 -40 -4 -22 -11 -40 -16 -40 -5 0 -9 -5 -9
-12 0 -6 -9 -30 -19 -52 -39 -84 -61 -135 -61 -145 0 -6 -4 -11 -10 -11 -5 0
-10 -6 -10 -14 0 -13 -29 -75 -40 -86 -4 -4 -26 -45 -85 -161 -5 -10 -13 -19
-17 -19 -5 0 -8 -9 -8 -20 0 -11 -3 -20 -8 -20 -4 0 -16 -16 -27 -36 -27 -50
-121 -144 -145 -144 -11 0 -20 -4 -20 -8 0 -15 -167 -57 -290 -73 -249 -33
-786 -49 -980 -30 -250 24 -532 63 -630 85 -36 8 -78 18 -95 21 -16 4 -54 18
-83 31 -29 13 -56 24 -60 24 -4 0 -34 29 -68 64 -33 36 -72 70 -88 75 -15 6
-26 17 -24 23 1 7 -6 25 -16 40 -10 16 -16 34 -13 42 4 10 1 13 -9 9 -12 -4
-14 0 -8 21 4 18 2 26 -7 26 -9 0 -15 14 -17 38 -1 20 -7 39 -12 40 -6 2 -10
12 -10 23 0 10 -4 19 -9 19 -5 0 -12 20 -15 45 -4 24 -11 47 -15 50 -5 2 -12
31 -16 62 -4 32 -10 63 -15 68 -7 10 -15 78 -27 228 -6 81 10 215 31 251 18
34 59 76 73 76 7 0 13 3 13 8 0 4 15 13 33 21 116 49 119 50 192 68 124 30
348 62 507 72 59 4 111 10 114 14 10 10 549 1 694 -12z m4395 -2 c194 -9 465
-41 550 -63 11 -3 52 -13 90 -22 186 -42 299 -113 338 -212 20 -49 23 -255 6
-332 -5 -25 -12 -66 -16 -92 -3 -27 -9 -48 -13 -48 -4 0 -10 -22 -14 -50 -4
-27 -11 -52 -16 -55 -6 -3 -10 -16 -10 -29 0 -12 -4 -26 -8 -31 -5 -6 -17 -32
-27 -60 -10 -27 -21 -52 -24 -55 -3 -3 -22 -35 -40 -72 -19 -38 -39 -68 -43
-68 -4 0 -8 -5 -8 -11 0 -10 -106 -119 -116 -119 -3 0 -20 -10 -37 -23 -29
-21 -121 -68 -172 -88 -27 -11 -102 -31 -150 -40 -22 -4 -78 -15 -125 -24
-314 -62 -895 -76 -1255 -30 -109 14 -242 38 -257 46 -10 5 -24 9 -32 9 -26 0
-126 34 -126 42 0 4 -6 8 -14 8 -18 0 -76 32 -76 43 0 4 -5 7 -10 7 -9 0 -170
157 -170 166 0 1 -16 25 -35 54 -19 29 -38 63 -41 76 -3 13 -10 24 -15 24 -5
0 -9 6 -9 14 0 7 -7 27 -15 42 -8 16 -15 37 -15 46 0 9 -5 20 -10 23 -6 4 -8
23 -5 43 4 28 3 32 -4 17 -8 -18 -10 -16 -10 10 -1 17 -8 44 -17 60 -9 17 -29
70 -45 119 -53 162 -36 292 47 370 44 41 232 136 269 136 9 0 23 4 33 9 34 17
118 41 144 41 15 0 30 5 33 10 3 6 16 10 28 10 12 0 51 6 87 14 61 14 104 21
275 46 269 40 739 57 1080 39z m-1400 -59 c-3 -5 -17 -10 -31 -10 -13 0 -24 5
-24 10 0 6 14 10 31 10 17 0 28 -4 24 -10z m-2100 -26 c39 -9 79 -20 90 -24
11 -4 52 -15 90 -25 75 -18 82 -21 71 -32 -4 -4 -16 -2 -26 5 -11 7 -30 12
-43 12 -13 0 -27 3 -31 8 -4 4 -33 12 -64 19 -31 6 -70 15 -87 18 -16 4 -39
11 -50 15 -11 5 -33 11 -50 13 l-30 4 30 2 c17 0 62 -6 100 -15z m2035 12 c0
-2 -16 -6 -35 -8 -19 -2 -35 0 -35 4 0 4 16 8 35 8 19 0 35 -2 35 -4z m-345
-85 c-6 -4 -23 -11 -38 -15 -25 -6 -27 -5 -15 8 7 8 24 15 38 16 14 0 20 -4
15 -9z m-702 -168 c-7 -2 -21 -2 -30 0 -10 3 -4 5 12 5 17 0 24 -2 18 -5z
m155 0 c-27 -2 -69 -2 -95 0 -27 2 -5 3 47 3 52 0 74 -1 48 -3z"/>
<path d="M4804 3978 c3 -7 9 -21 12 -30 4 -10 10 -18 15 -18 5 0 9 -6 9 -13 0
-7 11 -37 25 -65 14 -29 25 -56 25 -62 0 -5 5 -10 10 -10 6 0 10 -6 10 -12 0
-7 10 -26 21 -43 l21 -30 -7 30 c-4 16 -10 32 -14 35 -3 3 -15 25 -26 50 -11
25 -22 47 -25 50 -4 3 -15 26 -26 52 -10 27 -22 48 -26 48 -5 0 -8 7 -8 15 0
8 -5 15 -11 15 -6 0 -8 -6 -5 -12z"/>
</g>
</svg>
