<?xml version="1.0" standalone="no"?>
<!DOCTYPE svg PUBLIC "-//W3C//DTD SVG 20010904//EN"
 "http://www.w3.org/TR/2001/REC-SVG-20010904/DTD/svg10.dtd">
<svg version="1.0" xmlns="http://www.w3.org/2000/svg"
 width="1200.000000pt" height="1552.000000pt" viewBox="0 0 1200.000000 1552.000000"
 preserveAspectRatio="xMidYMid meet">

<g transform="translate(0.000000,1552.000000) scale(0.100000,-0.100000)"
fill="#000000" stroke="none">
<path d="M5796 10178 c-69 -13 -179 -65 -272 -130 -103 -72 -143 -91 -234
-113 -93 -22 -261 -81 -360 -127 -41 -19 -97 -40 -125 -47 -27 -7 -68 -17 -90
-23 -65 -17 -151 -86 -311 -251 -83 -86 -163 -161 -177 -166 -46 -18 -198 -24
-266 -11 -36 6 -138 36 -228 66 -241 81 -282 77 -351 -37 -80 -132 -110 -320
-78 -494 21 -113 38 -173 86 -305 57 -155 127 -403 139 -495 9 -64 8 -94 -3
-149 -10 -48 -12 -75 -5 -88 5 -10 7 -23 4 -28 -17 -27 76 -50 138 -35 37 10
57 -9 57 -52 0 -26 5 -36 20 -40 11 -3 20 -9 20 -14 0 -5 8 -9 18 -9 24 0 98
-53 113 -81 9 -18 7 -25 -14 -46 -23 -23 -32 -25 -108 -24 -83 1 -84 1 -104
-29 -11 -16 -23 -30 -27 -30 -5 0 -8 -13 -8 -29 0 -16 -6 -36 -13 -43 -7 -7
-16 -21 -20 -32 -4 -10 -13 -16 -22 -13 -9 4 -12 1 -9 -7 4 -9 -13 -17 -55
-25 -34 -7 -61 -16 -61 -22 0 -5 -11 -21 -24 -34 -20 -20 -29 -23 -54 -16 -16
5 -35 5 -43 0 -11 -7 -11 -9 3 -9 9 0 19 -4 22 -9 3 -4 -5 -64 -18 -132 -51
-267 -58 -389 -44 -764 7 -187 12 -448 13 -580 0 -234 1 -241 24 -278 25 -42
91 -91 103 -79 5 5 3 34 -3 65 -14 70 -2 119 46 175 23 26 34 52 39 87 8 61
12 84 26 155 6 30 16 82 21 115 6 32 23 83 37 112 55 107 346 415 487 515 107
76 253 135 405 162 47 8 123 22 170 31 199 37 505 59 820 59 414 1 876 -25
1065 -59 44 -8 157 -26 250 -41 94 -14 204 -36 245 -49 41 -13 116 -36 165
-50 162 -48 189 -57 320 -111 206 -83 289 -120 336 -150 81 -51 168 -126 216
-188 140 -179 208 -299 245 -438 20 -74 22 -104 20 -276 -1 -152 1 -201 13
-229 19 -45 19 -136 1 -171 -8 -15 -28 -40 -45 -56 -32 -31 -54 -86 -44 -113
8 -21 70 -10 142 25 106 52 153 167 157 383 1 64 4 125 8 135 11 37 67 380 81
504 30 253 40 535 26 712 -9 119 -10 228 -4 403 9 236 10 379 2 625 l-4 125
67 90 c175 234 233 333 264 455 24 96 15 152 -46 279 -111 229 -228 397 -396
567 -60 61 -138 130 -173 155 -62 43 -65 47 -92 124 -52 153 -109 255 -163
290 -13 9 -75 34 -137 56 -325 116 -411 133 -659 131 -102 0 -216 -5 -255 -11
-266 -38 -237 -39 -402 3 -82 20 -189 43 -238 51 -76 13 -99 21 -155 59 -182
121 -325 157 -494 124z m172 -1439 c38 -8 52 -15 52 -27 0 -58 -25 -204 -41
-240 -18 -43 -18 -43 -66 -40 l-48 3 2 92 c2 106 6 103 -119 103 -119 0 -121
-2 -137 -106 -10 -68 -35 -851 -27 -861 1 -1 49 -4 106 -7 58 -3 114 -6 125
-8 18 -3 20 3 20 72 0 41 2 147 5 235 l4 160 -57 -3 c-32 -1 -66 2 -76 8 -27
14 -35 66 -13 95 16 23 22 24 144 25 l128 0 6 -26 c4 -15 4 -72 0 -128 -4 -55
-9 -173 -12 -261 -6 -184 -14 -224 -53 -267 l-29 -32 -153 -1 c-174 0 -216 10
-245 59 -17 29 -18 60 -15 416 1 211 7 420 12 465 5 44 9 102 9 128 0 60 31
124 68 139 57 24 302 28 410 7z m-540 -15 c25 -17 26 -24 12 -76 -9 -31 -15
-37 -42 -40 -25 -2 -33 -9 -39 -32 -27 -101 -43 -607 -26 -835 9 -121 8 -128
-14 -169 -34 -65 -50 -70 -236 -67 -144 2 -165 4 -184 21 -53 47 -53 48 -44
459 13 596 13 591 -9 587 -22 -4 -36 13 -36 45 0 12 -7 29 -16 38 -24 23 -10
31 87 49 104 19 169 20 193 3 16 -11 16 -18 7 -55 -13 -46 -24 -57 -61 -57
-37 0 -39 -14 -54 -505 -9 -298 -10 -449 -2 -457 4 -4 65 -9 136 -11 119 -4
128 -3 132 14 3 11 1 30 -4 43 -12 34 -15 441 -5 704 8 213 8 217 -11 217 -30
0 -52 27 -52 63 0 62 28 75 160 76 62 1 92 -3 108 -15z m1138 -16 c54 -15 65
-31 55 -78 -6 -32 -10 -35 -47 -38 l-41 -3 -7 -122 c-4 -67 -9 -178 -12 -247
-3 -69 -7 -150 -9 -180 -2 -30 -9 -120 -15 -200 -6 -80 -15 -158 -20 -174 -6
-16 -10 -30 -10 -32 0 -6 77 -27 108 -30 19 -2 42 -6 52 -9 31 -10 47 19 49
85 1 34 5 70 11 79 14 27 69 35 92 14 21 -18 20 -67 -3 -213 -19 -119 -13
-110 -74 -110 -29 0 -91 9 -137 20 -46 11 -114 23 -153 26 -120 10 -159 32
-148 88 8 41 22 58 44 51 57 -19 69 32 94 410 10 158 17 485 11 518 -5 29 -11
37 -29 37 -32 0 -44 11 -53 45 -4 17 -11 36 -17 43 -15 20 2 30 58 35 66 6
145 0 201 -15z m-1843 -49 c27 -7 37 -15 37 -30 0 -28 -18 -60 -48 -85 -22
-18 -28 -35 -38 -104 -7 -46 -13 -139 -13 -208 -1 -69 -4 -129 -6 -133 -3 -4
-8 -111 -11 -238 l-7 -231 35 0 c48 0 62 -19 54 -74 -6 -40 -10 -45 -49 -58
-94 -33 -110 -37 -118 -32 -5 3 -17 0 -27 -5 -30 -16 -53 8 -59 62 -5 44 -4
47 26 64 l31 18 2 105 c3 183 4 194 12 248 6 41 5 52 -6 52 -44 0 -147 -24
-172 -39 l-28 -18 0 -192 c-1 -105 2 -195 6 -198 4 -4 19 -7 34 -8 26 0 27 -3
30 -57 3 -55 2 -57 -30 -72 -58 -26 -128 -46 -163 -46 -31 0 -35 3 -40 34 -11
56 -3 80 32 96 l33 15 -1 115 c0 108 2 175 16 445 8 141 13 217 21 283 l6 53
-28 -3 c-27 -3 -29 0 -32 33 -4 46 33 93 97 122 85 38 121 31 121 -25 0 -31
-6 -45 -31 -67 -36 -33 -48 -77 -50 -176 0 -38 -4 -97 -8 -130 -5 -33 -7 -63
-5 -66 6 -11 189 42 202 58 8 11 12 55 12 127 1 61 4 129 9 151 10 54 5 66
-25 59 -32 -8 -51 31 -38 78 8 26 18 36 49 46 22 7 49 16 60 21 50 23 59 24
108 10z m2346 -30 c32 -5 64 -18 78 -31 42 -39 22 -124 -26 -111 -10 3 -21 1
-24 -4 -4 -6 -7 -72 -8 -149 -2 -180 -24 -552 -40 -677 -7 -53 -9 -100 -5
-104 4 -4 21 -12 39 -18 27 -8 32 -15 35 -46 2 -19 -1 -46 -7 -60 -8 -23 -15
-26 -68 -28 -55 -1 -179 19 -203 34 -6 4 -8 21 -5 43 13 80 14 82 44 82 19 0
31 7 39 23 26 52 50 327 59 675 6 215 5 234 -12 252 -10 11 -26 20 -35 20 -19
0 -30 27 -30 77 0 45 20 47 169 22z m265 -58 c145 -44 173 -51 186 -51 8 -1
42 -15 75 -33 l60 -32 -1 -133 c0 -157 -7 -174 -64 -143 l-34 18 3 86 c2 80 1
86 -21 101 -13 8 -50 17 -83 18 l-60 3 -8 -165 c-4 -91 -5 -179 -2 -196 5 -27
9 -30 38 -30 17 0 44 -4 60 -8 25 -7 27 -6 27 18 0 32 22 43 56 28 23 -11 24
-16 24 -104 0 -51 -5 -110 -11 -131 -9 -35 -13 -38 -42 -35 -30 3 -32 6 -35
46 -2 25 -8 42 -15 42 -7 0 -30 9 -52 20 -22 11 -44 20 -50 20 -7 0 -12 -39
-14 -112 -1 -62 -6 -153 -10 -203 -4 -49 -6 -95 -4 -101 2 -6 18 -15 35 -20
40 -12 56 -52 38 -95 -16 -39 -48 -46 -121 -25 -32 9 -67 16 -76 16 -10 1 -28
9 -41 20 -20 16 -23 27 -20 72 3 51 4 53 33 56 17 2 34 7 38 11 14 14 37 367
41 638 l5 263 -30 20 c-26 19 -29 27 -29 76 l0 54 37 0 c20 0 50 -4 67 -9z
m-3146 -181 c-6 -52 -12 -124 -13 -160 -1 -36 -3 -70 -4 -77 -2 -19 -35 -33
-61 -26 -22 6 -23 8 -17 105 3 54 2 98 -1 98 -50 -1 -71 -165 -74 -595 l-3
-310 28 3 c15 2 27 0 28 -5 12 -101 4 -119 -72 -152 -30 -13 -67 -30 -82 -38
-36 -19 -57 -3 -57 42 0 47 8 64 39 80 l27 14 2 203 c3 256 20 604 33 642 10
32 5 46 -12 29 -15 -15 -28 -85 -29 -155 0 -67 -13 -108 -35 -108 -23 0 -30
43 -30 177 1 122 1 123 30 154 17 17 53 48 80 69 63 46 216 123 227 112 4 -4
2 -50 -4 -102z m3690 -33 c45 -23 102 -59 127 -80 l44 -38 -3 -115 c-3 -89 -7
-120 -20 -132 -14 -14 -17 -14 -36 3 -18 16 -20 26 -14 94 l7 77 -37 27 c-20
16 -48 29 -61 30 l-26 2 -3 -158 c-2 -87 -6 -160 -9 -163 -3 -3 -1 -18 4 -34
7 -19 19 -29 37 -32 15 -3 34 -7 42 -9 9 -2 15 3 15 13 0 24 19 40 38 32 22
-8 30 -59 25 -159 -5 -87 -18 -118 -46 -108 -26 10 -32 25 -26 61 5 25 3 32
-10 32 -9 0 -28 7 -42 16 -14 10 -28 13 -33 8 -5 -5 -11 -95 -14 -201 l-7
-192 38 -10 c20 -6 47 -17 59 -26 20 -14 23 -14 31 1 5 9 7 47 4 85 -4 55 -2
69 9 69 39 -1 69 -63 69 -142 0 -29 4 -67 9 -85 10 -35 -8 -104 -29 -111 -6
-2 -46 14 -88 36 -42 21 -90 42 -107 46 -48 11 -136 56 -142 72 -3 8 -1 35 3
62 7 37 14 48 31 50 11 2 24 13 27 25 8 27 29 516 30 714 1 131 -1 143 -20
165 -23 24 -41 99 -29 118 11 17 61 3 153 -43z"/>
<path d="M3480 7717 c0 -12 68 -82 74 -77 2 3 -13 23 -35 45 -21 22 -39 36
-39 32z"/>
<path d="M3565 7680 c3 -5 8 -10 11 -10 2 0 4 5 4 10 0 6 -5 10 -11 10 -5 0
-7 -4 -4 -10z"/>
<path d="M3620 7680 c0 -6 -4 -8 -10 -5 -6 3 -7 -1 -4 -9 3 -9 10 -16 16 -16
5 0 6 5 2 12 -5 8 -2 9 10 5 11 -5 16 -3 14 5 -6 16 -28 23 -28 8z"/>
<path d="M3470 7671 c0 -5 6 -16 13 -23 7 -7 16 -21 20 -30 3 -10 14 -18 23
-18 13 0 11 6 -10 26 -14 15 -26 33 -26 40 0 8 -4 14 -10 14 -5 0 -10 -4 -10
-9z"/>
<path d="M3658 7658 c-7 -16 7 -46 17 -37 3 4 2 16 -3 29 -7 18 -10 20 -14 8z"/>
<path d="M3602 7633 c63 -68 78 -87 78 -97 0 -7 15 -10 40 -8 l40 4 -23 32
c-12 17 -21 37 -19 43 4 16 -14 17 -24 2 -3 -6 6 -24 22 -40 22 -23 24 -29 11
-29 -9 0 -43 27 -75 60 -58 59 -101 87 -50 33z"/>
<path d="M3450 7620 c0 -12 7 -20 16 -20 13 0 14 3 5 13 -6 8 -8 17 -4 20 3 4
1 7 -5 7 -7 0 -12 -9 -12 -20z"/>
<path d="M3555 7620 c3 -5 11 -10 16 -10 6 0 7 5 4 10 -3 6 -11 10 -16 10 -6
0 -7 -4 -4 -10z"/>
<path d="M3597 7575 c20 -27 29 -30 38 -15 3 6 0 10 -8 10 -8 0 -17 7 -21 15
-3 8 -10 15 -16 15 -6 0 -3 -11 7 -25z"/>
<path d="M3517 7535 c43 -49 70 -70 61 -46 -6 17 -88 101 -99 101 -6 0 11 -25
38 -55z"/>
<path d="M3526 7581 c-4 -5 1 -8 9 -7 21 3 31 16 12 16 -9 0 -18 -4 -21 -9z"/>
<path d="M3446 7555 c9 -14 22 -25 30 -25 8 0 3 10 -12 25 -14 14 -27 25 -30
25 -2 0 3 -11 12 -25z"/>
<path d="M3770 7570 c0 -5 5 -10 11 -10 5 0 7 5 4 10 -3 6 -8 10 -11 10 -2 0
-4 -4 -4 -10z"/>
<path d="M3557 7563 c-7 -6 33 -53 44 -53 4 0 9 6 12 13 5 15 -46 51 -56 40z"/>
<path d="M3420 7533 c0 -5 6 -17 13 -27 11 -15 18 -17 33 -8 15 9 24 4 50 -26
41 -48 53 -37 13 11 -24 29 -35 36 -53 31 -15 -3 -29 1 -40 11 -9 9 -16 12
-16 8z"/>
<path d="M3636 7514 c-4 -10 -1 -14 6 -12 15 5 23 28 10 28 -5 0 -13 -7 -16
-16z"/>
<path d="M3820 7501 c0 -5 9 -7 20 -4 11 3 20 7 20 9 0 2 -9 4 -20 4 -11 0
-20 -4 -20 -9z"/>
<path d="M3460 7482 c0 -15 79 -97 86 -89 7 7 -7 37 -17 37 -5 0 -23 15 -39
33 -16 17 -30 26 -30 19z"/>
<path d="M3610 7475 c0 -9 6 -12 15 -9 8 4 12 10 9 15 -8 14 -24 10 -24 -6z"/>
<path d="M3420 7472 c0 -20 72 -102 89 -102 16 0 15 2 -39 58 -27 29 -50 48
-50 44z"/>
<path d="M3585 7450 c3 -5 8 -10 11 -10 2 0 4 5 4 10 0 6 -5 10 -11 10 -5 0
-7 -4 -4 -10z"/>
<path d="M3410 7412 c0 -7 13 -27 30 -45 37 -39 37 -42 3 -45 -32 -3 -37 -7
-28 -22 5 -9 9 -9 14 -1 4 6 19 12 34 13 22 2 26 6 21 21 -4 14 -3 17 6 12 9
-6 11 -4 6 4 -5 7 -10 10 -13 8 -2 -3 -20 11 -38 31 -19 21 -35 31 -35 24z"/>
<path d="M3573 7403 c-4 -10 -13 -24 -20 -31 -15 -15 -17 -32 -4 -32 13 0 32
26 24 33 -3 4 -2 7 3 7 5 0 10 9 11 20 2 25 -5 26 -14 3z"/>
<path d="M3402 7350 c7 -11 18 -20 25 -20 18 0 16 10 -4 26 -26 20 -35 17 -21
-6z"/>
<path d="M3510 7335 c-10 -13 -9 -15 9 -15 11 0 21 4 21 9 0 18 -18 21 -30 6z"/>
<path d="M3375 7331 c-3 -5 -1 -12 5 -16 5 -3 10 1 10 9 0 18 -6 21 -15 7z"/>
<path d="M3396 7275 c-3 -8 -1 -15 4 -15 13 0 22 18 11 24 -5 3 -11 -1 -15 -9z"/>
</g>
</svg>
