<?xml version="1.0" standalone="no"?>
<!DOCTYPE svg PUBLIC "-//W3C//DTD SVG 20010904//EN"
 "http://www.w3.org/TR/2001/REC-SVG-20010904/DTD/svg10.dtd">
<svg version="1.0" xmlns="http://www.w3.org/2000/svg"
 width="225.000000pt" height="225.000000pt" viewBox="0 0 225.000000 225.000000"
 preserveAspectRatio="xMidYMid meet">

<g transform="translate(0.000000,225.000000) scale(0.100000,-0.100000)"
fill="#000000" stroke="none">
<path d="M362 2010 c0 -14 2 -19 5 -12 2 6 2 18 0 25 -3 6 -5 1 -5 -13z"/>
<path d="M340 1962 c0 -10 5 -23 12 -30 6 -6 8 -15 4 -19 -4 -4 -11 -2 -15 6
-6 10 -10 9 -15 -5 -4 -10 0 -24 9 -34 18 -20 19 -36 3 -46 -6 -4 -8 -3 -5 3
4 6 0 16 -8 23 -12 10 -13 8 -10 -11 3 -12 10 -26 16 -30 6 -4 8 -12 4 -19 -6
-9 -9 -9 -16 1 -7 11 -9 10 -9 -3 0 -12 8 -18 23 -18 12 0 18 -4 12 -8 -12 -9
-16 -44 -4 -36 13 8 11 -30 -2 -43 -7 -7 -7 -13 -1 -17 17 -10 20 5 27 133 6
99 4 125 -6 132 -12 8 -12 10 -1 18 11 7 11 9 -2 14 -11 4 -16 1 -16 -11z"/>
<path d="M1910 1955 c-8 -111 -5 -152 10 -147 12 4 13 2 3 -9 -7 -7 -13 -19
-13 -27 0 -7 -7 -21 -16 -29 -11 -12 -12 -18 -4 -23 9 -5 9 -9 1 -14 -6 -4
-11 -21 -11 -38 0 -37 10 -32 15 8 2 16 4 31 4 34 1 3 5 -2 11 -10 5 -8 13
-11 17 -6 4 4 -1 14 -11 22 -16 11 -17 17 -8 26 10 10 15 10 23 -2 7 -11 9 -7
4 17 -3 17 -2 34 4 38 7 4 7 12 -2 26 -10 16 -9 21 3 29 8 5 11 12 7 16 -3 4
-13 1 -22 -6 -21 -17 -19 -1 2 23 16 17 16 20 3 30 -9 7 -14 20 -12 30 2 9 1
23 -1 30 -3 6 -6 -1 -7 -18z"/>
<path d="M1891 1774 c0 -11 3 -14 6 -6 3 7 2 16 -1 19 -3 4 -6 -2 -5 -13z"/>
<path d="M311 1724 c0 -11 3 -14 6 -6 3 7 2 16 -1 19 -3 4 -6 -2 -5 -13z"/>
<path d="M306 1655 c-3 -8 -1 -15 4 -15 6 0 10 7 10 15 0 8 -2 15 -4 15 -2 0
-6 -7 -10 -15z"/>
<path d="M337 1625 l-18 -25 25 11 c14 7 22 17 19 25 -6 17 -5 18 -26 -11z"/>
<path d="M1893 1631 c-9 -15 -9 -20 0 -24 7 -3 13 5 13 19 2 29 2 29 -13 5z"/>
<path d="M344 1572 c5 -15 2 -22 -11 -25 -15 -4 -14 -5 3 -6 27 -1 36 20 17
38 -13 12 -14 11 -9 -7z"/>
<path d="M1865 1550 c-3 -6 1 -7 9 -4 18 7 21 14 7 14 -6 0 -13 -4 -16 -10z"/>
<path d="M354 1496 c1 -25 10 -34 20 -18 2 4 -2 15 -9 25 -12 17 -13 16 -11
-7z"/>
<path d="M1867 1475 c-4 -8 -2 -17 3 -20 6 -4 10 3 10 14 0 25 -6 27 -13 6z"/>
<path d="M336 1435 c-3 -11 -1 -24 3 -28 5 -5 8 -1 8 9 -1 11 3 18 8 17 6 0
15 5 22 12 9 10 7 13 -12 11 -15 0 -26 -9 -29 -21z"/>
<path d="M1835 1440 c-3 -5 -1 -10 4 -10 6 0 11 5 11 10 0 6 -2 10 -4 10 -3 0
-8 -4 -11 -10z"/>
<path d="M380 1428 c0 -9 -3 -18 -7 -21 -5 -2 -3 -2 4 -1 6 2 14 -5 16 -14 4
-14 5 -13 6 3 0 11 -4 27 -9 35 -8 13 -10 13 -10 -2z"/>
<path d="M1843 1400 c-1 -11 2 -18 8 -15 11 7 12 35 1 35 -4 0 -8 -9 -9 -20z"/>
<path d="M350 1376 c0 -2 7 -6 15 -10 8 -3 15 -1 15 4 0 6 -7 10 -15 10 -8 0
-15 -2 -15 -4z"/>
<path d="M391 1365 c1 -19 18 -51 18 -35 0 8 -4 22 -9 30 -5 8 -9 11 -9 5z"/>
<path d="M1810 1355 c-7 -9 -10 -18 -6 -22 3 -3 6 -1 6 6 0 7 5 9 10 6 6 -4 7
-11 4 -17 -4 -6 -2 -8 4 -5 5 4 8 16 5 27 -6 24 -7 24 -23 5z"/>
<path d="M340 1351 c0 -17 25 -30 40 -20 12 8 11 9 -5 7 -12 -2 -19 2 -17 10
1 6 -2 12 -8 12 -5 0 -10 -4 -10 -9z"/>
<path d="M395 1285 c0 -15 5 -23 12 -21 6 3 14 0 17 -7 2 -7 5 -7 5 -2 0 6 -7
20 -17 32 l-17 23 0 -25z"/>
<path d="M1786 1285 c-2 -6 2 -12 10 -12 7 0 15 6 18 12 2 6 -2 12 -10 12 -7
0 -15 -6 -18 -12z"/>
<path d="M401 1224 c0 -11 3 -14 6 -6 3 7 2 16 -1 19 -3 4 -6 -2 -5 -13z"/>
<path d="M375 1219 c-4 -6 -5 -12 -2 -15 2 -3 7 2 10 11 7 17 1 20 -8 4z"/>
<path d="M418 1212 c-3 -11 0 -19 7 -19 7 0 10 8 7 19 -2 10 -6 18 -7 18 -1 0
-5 -8 -7 -18z"/>
<path d="M1767 1223 c-10 -9 -9 -23 2 -23 5 0 11 7 15 15 5 15 -5 20 -17 8z"/>
<path d="M1753 1173 c0 -7 6 -13 13 -13 6 0 14 6 17 13 3 7 -3 13 -12 13 -10
0 -18 -6 -18 -13z"/>
<path d="M427 1136 c-3 -8 0 -16 7 -19 6 -3 13 4 13 14 2 22 -12 25 -20 5z"/>
<path d="M1737 1136 c-4 -10 -1 -13 8 -9 8 3 12 9 9 14 -7 12 -11 11 -17 -5z"/>
<path d="M1740 1111 c-8 -6 -19 -7 -25 -3 -5 3 -4 -2 3 -10 15 -19 39 -14 39
7 0 8 -1 15 -1 15 -1 0 -8 -4 -16 -9z"/>
<path d="M450 1080 c0 -5 5 -10 11 -10 5 0 7 5 4 10 -3 6 -8 10 -11 10 -2 0
-4 -4 -4 -10z"/>
<path d="M1710 1071 c0 -5 7 -11 15 -15 8 -3 15 -1 15 3 0 5 -7 11 -15 15 -8
3 -15 1 -15 -3z"/>
<path d="M1700 1021 c-13 -26 -13 -31 5 -31 9 0 12 6 9 15 -4 8 -1 15 5 15 6
0 11 5 11 10 0 17 -19 11 -30 -9z"/>
<path d="M470 1011 c0 -6 5 -13 10 -16 6 -3 10 1 10 9 0 9 -4 16 -10 16 -5 0
-10 -4 -10 -9z"/>
<path d="M1685 960 c-3 -5 -1 -10 4 -10 6 0 11 5 11 10 0 6 -2 10 -4 10 -3 0
-8 -4 -11 -10z"/>
<path d="M490 939 c0 -15 18 -19 23 -6 3 8 -1 14 -9 14 -8 0 -14 -4 -14 -8z"/>
<path d="M1660 932 c0 -5 7 -13 16 -16 10 -4 14 -1 12 6 -5 15 -28 23 -28 10z"/>
<path d="M1649 907 c11 -14 11 -21 3 -29 -15 -15 -15 -28 -2 -28 6 0 10 6 10
14 0 8 5 16 11 18 6 2 0 12 -13 23 -18 16 -20 17 -9 2z"/>
<path d="M510 889 c0 -5 5 -7 10 -4 6 3 10 8 10 11 0 2 -4 4 -10 4 -5 0 -10
-5 -10 -11z"/>
<path d="M510 860 c0 -5 5 -10 11 -10 5 0 7 5 4 10 -3 6 -8 10 -11 10 -2 0 -4
-4 -4 -10z"/>
<path d="M1615 840 c3 -5 8 -10 11 -10 2 0 4 5 4 10 0 6 -5 10 -11 10 -5 0 -7
-4 -4 -10z"/>
<path d="M1615 810 c5 -8 -22 -30 -29 -23 -13 13 -4 -13 11 -32 14 -18 15 -18
9 -2 -8 24 4 44 15 26 6 -10 9 -8 9 8 0 12 6 23 13 26 6 3 2 4 -10 4 -12 -1
-20 -4 -18 -7z"/>
<path d="M526 783 c-6 -14 -5 -15 5 -6 7 7 10 15 7 18 -3 3 -9 -2 -12 -12z"/>
<path d="M1577 743 c-4 -6 -4 -18 -1 -26 3 -8 1 -18 -5 -22 -6 -3 -11 2 -11
12 0 13 -5 9 -15 -11 -12 -22 -13 -32 -4 -40 9 -8 10 -6 5 8 -5 15 -2 17 14
13 10 -3 19 -2 18 2 -1 3 2 14 6 23 10 21 4 58 -7 41z"/>
<path d="M610 661 c0 -6 4 -13 10 -16 6 -3 7 1 4 9 -7 18 -14 21 -14 7z"/>
<path d="M1503 647 c6 -15 -12 -41 -33 -49 -8 -3 -1 -6 16 -5 27 0 31 3 26 21
-5 18 -3 19 11 8 14 -12 15 -11 4 12 -12 26 -34 37 -24 13z"/>
<path d="M625 620 c-4 -6 -2 -10 4 -10 5 0 13 -9 16 -20 7 -21 25 -28 25 -10
0 16 -39 50 -45 40z"/>
<path d="M1456 561 c-10 -11 -25 -17 -34 -14 -15 4 -15 3 -2 -6 13 -9 11 -15
-14 -38 -23 -23 -27 -24 -22 -8 6 15 4 17 -5 8 -13 -13 -3 -36 13 -27 6 4 14
0 19 -7 6 -10 9 -8 9 10 0 15 5 21 13 18 10 -4 13 2 9 19 -4 25 12 34 21 12 3
-7 6 0 6 15 1 19 5 26 13 21 7 -4 8 -3 4 4 -9 15 -10 15 -30 -7z"/>
<path d="M680 542 c0 -12 39 -60 40 -49 0 5 -9 20 -20 34 -11 14 -20 21 -20
15z"/>
<path d="M650 536 c0 -2 8 -10 18 -17 15 -13 16 -12 3 4 -13 16 -21 21 -21 13z"/>
<path d="M734 492 c-9 -14 -6 -24 20 -53 17 -19 39 -38 48 -42 19 -7 33 19 16
29 -7 5 -8 2 -3 -6 6 -10 4 -12 -9 -7 -10 4 -21 7 -24 7 -4 0 0 5 8 10 13 8
13 10 -2 10 -23 0 -34 20 -17 31 9 6 4 8 -16 3 -21 -4 -26 -3 -16 4 7 5 12 15
10 21 -3 7 -9 4 -15 -7z"/>
<path d="M1360 461 c0 -4 -10 -12 -22 -18 -22 -10 -22 -10 -1 -15 26 -7 61 27
37 36 -8 3 -14 2 -14 -3z"/>
<path d="M1282 404 c-7 -8 -17 -12 -22 -9 -9 6 -3 -46 7 -55 3 -3 4 5 1 17 -4
13 0 24 8 27 8 3 14 1 14 -4 0 -6 9 -1 20 10 11 11 20 22 20 25 0 11 -36 3
-48 -11z"/>
<path d="M834 388 c-7 -22 1 -33 32 -42 28 -8 26 13 -3 41 -22 21 -22 21 -29
1z m31 -26 c-3 -3 -11 0 -18 7 -9 10 -8 11 6 5 10 -3 15 -9 12 -12z"/>
<path d="M899 384 c5 -3 6 -17 1 -34 -10 -33 -5 -40 27 -40 21 0 28 10 24 33
0 4 4 7 9 7 9 0 14 -17 13 -47 -1 -7 10 -13 23 -13 l24 0 -20 20 c-12 12 -18
25 -15 29 6 11 -23 23 -36 15 -5 -3 -9 -12 -9 -20 0 -8 -9 -14 -22 -13 -18 1
-19 2 -5 6 14 4 15 8 7 18 -6 7 -9 18 -8 25 2 7 -3 14 -10 16 -7 1 -8 0 -3 -2z"/>
<path d="M1225 370 c-4 -6 -14 -9 -22 -6 -9 4 -11 2 -7 -6 5 -7 -1 -9 -20 -6
-14 3 -26 1 -26 -4 0 -6 -7 -7 -16 -4 -8 3 -12 2 -9 -4 8 -13 -1 -13 -27 1
-13 7 -18 7 -14 1 7 -12 -33 -10 -53 2 -10 7 -11 4 -2 -12 6 -11 18 -23 28
-27 17 -7 17 -8 -2 -15 -16 -7 -17 -9 -3 -9 23 -1 48 9 48 20 0 5 -9 9 -19 9
-11 0 -22 4 -25 9 -3 5 5 8 19 7 14 0 25 -5 25 -9 0 -4 9 -3 19 3 26 13 32 13
29 -2 -2 -7 -12 -16 -23 -20 -19 -6 -19 -6 2 -7 22 -1 48 30 35 43 -3 4 1 4
10 1 9 -4 19 -2 23 4 9 16 25 13 25 -4 0 -8 5 -15 12 -15 6 0 8 3 5 7 -4 3 -2
12 5 20 8 10 8 17 1 24 -8 8 -13 7 -18 -1z"/>
<path d="M1000 335 c0 -8 4 -15 10 -15 5 0 7 7 4 15 -4 8 -8 15 -10 15 -2 0
-4 -7 -4 -15z"/>
</g>
</svg>
